<svg width="375" height="667" viewBox="0 0 375 667" fill="none" xmlns="http://www.w3.org/2000/svg">
<path opacity="0.75" d="M0 8C0 3.58172 3.58172 0 8 0H367C371.418 0 375 3.58172 375 8V659C375 663.418 371.418 667 367 667H8C3.58172 667 0 663.418 0 659V8Z" fill="#D9D9D9"/>
<path d="M0 612H375V659C375 663.418 371.418 667 367 667H8C3.58172 667 0 663.418 0 659V612Z" fill="white"/>
<path d="M31.6971 655.39H30.2141L32.4737 648.844H34.2571L36.5135 655.39H35.0305L33.391 650.34H33.3398L31.6971 655.39ZM31.6044 652.817H35.1072V653.897H31.6044V652.817ZM39.2653 655.486C38.7624 655.486 38.3299 655.379 37.9677 655.166C37.6076 654.951 37.3306 654.653 37.1367 654.271C36.945 653.89 36.8491 653.451 36.8491 652.954C36.8491 652.452 36.946 652.011 37.1399 651.631C37.3359 651.25 37.614 650.953 37.9741 650.74C38.3342 650.524 38.7624 650.417 39.2589 650.417C39.6871 650.417 40.0621 650.495 40.3839 650.65C40.7056 650.806 40.9602 651.024 41.1477 651.305C41.3352 651.587 41.4386 651.917 41.4577 652.296H40.1729C40.1367 652.051 40.0408 651.854 39.8853 651.705C39.7319 651.554 39.5305 651.478 39.2812 651.478C39.0703 651.478 38.886 651.535 38.7283 651.65C38.5728 651.763 38.4513 651.929 38.364 652.146C38.2766 652.363 38.233 652.626 38.233 652.935C38.233 653.248 38.2756 653.515 38.3608 653.734C38.4482 653.954 38.5707 654.121 38.7283 654.236C38.886 654.351 39.0703 654.409 39.2812 654.409C39.4368 654.409 39.5763 654.377 39.6999 654.313C39.8256 654.249 39.929 654.156 40.0099 654.035C40.093 653.911 40.1474 653.763 40.1729 653.59H41.4577C41.4364 653.965 41.3342 654.296 41.1509 654.581C40.9698 654.865 40.7195 655.086 40.3999 655.246C40.0803 655.406 39.7021 655.486 39.2653 655.486ZM44.9406 650.481V651.503H41.9843V650.481H44.9406ZM42.6555 649.305H44.017V653.881C44.017 654.007 44.0361 654.105 44.0745 654.175C44.1128 654.244 44.1661 654.291 44.2343 654.319C44.3046 654.347 44.3856 654.361 44.4772 654.361C44.5411 654.361 44.605 654.355 44.6689 654.345C44.7329 654.332 44.7819 654.322 44.816 654.316L45.0301 655.329C44.9619 655.35 44.866 655.375 44.7425 655.403C44.6189 655.432 44.4687 655.451 44.2918 655.457C43.9637 655.47 43.676 655.426 43.4289 655.326C43.1839 655.226 42.9932 655.07 42.8568 654.859C42.7204 654.648 42.6533 654.382 42.6555 654.06V649.305ZM45.8275 655.39V650.481H47.189V655.39H45.8275ZM46.5115 649.848C46.309 649.848 46.1354 649.781 45.9905 649.647C45.8477 649.51 45.7764 649.347 45.7764 649.158C45.7764 648.97 45.8477 648.809 45.9905 648.675C46.1354 648.539 46.309 648.47 46.5115 648.47C46.7139 648.47 46.8865 648.539 47.0292 648.675C47.1741 648.809 47.2465 648.97 47.2465 649.158C47.2465 649.347 47.1741 649.51 47.0292 649.647C46.8865 649.781 46.7139 649.848 46.5115 649.848ZM50.4977 655.486C50.0012 655.486 49.5719 655.38 49.2097 655.169C48.8496 654.956 48.5716 654.66 48.3755 654.281C48.1795 653.899 48.0815 653.457 48.0815 652.954C48.0815 652.447 48.1795 652.004 48.3755 651.625C48.5716 651.244 48.8496 650.947 49.2097 650.736C49.5719 650.523 50.0012 650.417 50.4977 650.417C50.9941 650.417 51.4224 650.523 51.7825 650.736C52.1447 650.947 52.4238 651.244 52.6199 651.625C52.8159 652.004 52.9139 652.447 52.9139 652.954C52.9139 653.457 52.8159 653.899 52.6199 654.281C52.4238 654.66 52.1447 654.956 51.7825 655.169C51.4224 655.38 50.9941 655.486 50.4977 655.486ZM50.5041 654.431C50.7299 654.431 50.9185 654.367 51.0698 654.239C51.2211 654.109 51.335 653.932 51.4118 653.709C51.4906 653.485 51.53 653.23 51.53 652.945C51.53 652.659 51.4906 652.405 51.4118 652.181C51.335 651.957 51.2211 651.78 51.0698 651.65C50.9185 651.521 50.7299 651.456 50.5041 651.456C50.2761 651.456 50.0843 651.521 49.9288 651.65C49.7754 651.78 49.6593 651.957 49.5804 652.181C49.5037 652.405 49.4654 652.659 49.4654 652.945C49.4654 653.23 49.5037 653.485 49.5804 653.709C49.6593 653.932 49.7754 654.109 49.9288 654.239C50.0843 654.367 50.2761 654.431 50.5041 654.431ZM55.1607 652.552V655.39H53.7992V650.481H55.0968V651.347H55.1543C55.263 651.061 55.4451 650.835 55.7008 650.669C55.9565 650.501 56.2665 650.417 56.6309 650.417C56.9718 650.417 57.269 650.491 57.5225 650.641C57.7761 650.79 57.9732 651.003 58.1138 651.28C58.2544 651.555 58.3248 651.883 58.3248 652.264V655.39H56.9632V652.507C56.9654 652.207 56.8887 651.972 56.7331 651.804C56.5776 651.633 56.3635 651.548 56.0907 651.548C55.9075 651.548 55.7456 651.588 55.6049 651.666C55.4664 651.745 55.3578 651.86 55.2789 652.012C55.2022 652.161 55.1628 652.341 55.1607 652.552ZM67.5213 652.117C67.5213 652.831 67.386 653.438 67.1154 653.939C66.8469 654.44 66.4805 654.822 66.016 655.086C65.5536 655.348 65.0337 655.479 64.4563 655.479C63.8746 655.479 63.3526 655.347 62.8903 655.083C62.4279 654.819 62.0625 654.436 61.794 653.936C61.5256 653.435 61.3913 652.829 61.3913 652.117C61.3913 651.403 61.5256 650.796 61.794 650.295C62.0625 649.795 62.4279 649.413 62.8903 649.151C63.3526 648.887 63.8746 648.755 64.4563 648.755C65.0337 648.755 65.5536 648.887 66.016 649.151C66.4805 649.413 66.8469 649.795 67.1154 650.295C67.386 650.796 67.5213 651.403 67.5213 652.117ZM66.1183 652.117C66.1183 651.655 66.049 651.265 65.9105 650.947C65.7741 650.63 65.5813 650.389 65.332 650.225C65.0827 650.061 64.7908 649.979 64.4563 649.979C64.1218 649.979 63.8299 650.061 63.5806 650.225C63.3313 650.389 63.1374 650.63 62.9989 650.947C62.8626 651.265 62.7944 651.655 62.7944 652.117C62.7944 652.579 62.8626 652.969 62.9989 653.287C63.1374 653.604 63.3313 653.845 63.5806 654.009C63.8299 654.173 64.1218 654.255 64.4563 654.255C64.7908 654.255 65.0827 654.173 65.332 654.009C65.5813 653.845 65.7741 653.604 65.9105 653.287C66.049 652.969 66.1183 652.579 66.1183 652.117ZM69.8824 652.552V655.39H68.5209V650.481H69.8184V651.347H69.876C69.9846 651.061 70.1668 650.835 70.4225 650.669C70.6782 650.501 70.9882 650.417 71.3525 650.417C71.6934 650.417 71.9907 650.491 72.2442 650.641C72.4978 650.79 72.6949 651.003 72.8355 651.28C72.9761 651.555 73.0464 651.883 73.0464 652.264V655.39H71.6849V652.507C71.6871 652.207 71.6104 651.972 71.4548 651.804C71.2993 651.633 71.0851 651.548 70.8124 651.548C70.6292 651.548 70.4672 651.588 70.3266 651.666C70.1881 651.745 70.0795 651.86 70.0006 652.012C69.9239 652.161 69.8845 652.341 69.8824 652.552ZM76.3567 655.486C75.8517 655.486 75.4171 655.383 75.0527 655.179C74.6905 654.972 74.4114 654.68 74.2154 654.303C74.0194 653.924 73.9213 653.475 73.9213 652.958C73.9213 652.453 74.0194 652.01 74.2154 651.628C74.4114 651.247 74.6873 650.949 75.0431 650.736C75.4011 650.523 75.8208 650.417 76.3024 650.417C76.6262 650.417 76.9277 650.469 77.2069 650.573C77.4881 650.676 77.7331 650.83 77.9419 651.037C78.1529 651.244 78.3169 651.503 78.4341 651.817C78.5513 652.128 78.6099 652.492 78.6099 652.91V653.284H74.4647V652.44H77.3283C77.3283 652.244 77.2857 652.07 77.2005 651.919C77.1152 651.768 76.997 651.649 76.8457 651.564C76.6966 651.477 76.5229 651.433 76.3248 651.433C76.1181 651.433 75.9348 651.481 75.775 651.577C75.6174 651.671 75.4938 651.798 75.4043 651.957C75.3148 652.115 75.269 652.291 75.2669 652.485V653.287C75.2669 653.53 75.3116 653.74 75.4011 653.916C75.4927 654.093 75.6216 654.23 75.7878 654.326C75.954 654.421 76.1511 654.469 76.3791 654.469C76.5304 654.469 76.6689 654.448 76.7946 654.405C76.9203 654.363 77.0279 654.299 77.1174 654.214C77.2069 654.128 77.275 654.024 77.3219 653.9L78.5811 653.984C78.5172 654.286 78.3862 654.55 78.188 654.776C77.992 655 77.7385 655.175 77.4274 655.3C77.1184 655.424 76.7615 655.486 76.3567 655.486Z" fill="#2F6DFE"/>
<path d="M54.2928 627.347C55.4151 627.347 56.4914 627.793 57.285 628.587C58.0786 629.38 58.5244 630.457 58.5244 631.579C58.5244 632.701 58.0786 633.778 57.285 634.571C56.4914 635.365 55.4151 635.811 54.2928 635.811C53.1705 635.811 52.0941 635.365 51.3005 634.571C50.5069 633.778 50.0611 632.701 50.0611 631.579C50.0611 630.457 50.5069 629.38 51.3005 628.587C52.0941 627.793 53.1705 627.347 54.2928 627.347ZM54.2928 629.463C53.7316 629.463 53.1934 629.686 52.7966 630.083C52.3999 630.48 52.1769 631.018 52.1769 631.579C52.1769 632.14 52.3999 632.678 52.7966 633.075C53.1934 633.472 53.7316 633.695 54.2928 633.695C54.8539 633.695 55.3921 633.472 55.7889 633.075C56.1857 632.678 56.4086 632.14 56.4086 631.579C56.4086 631.018 56.1857 630.48 55.7889 630.083C55.3921 629.686 54.8539 629.463 54.2928 629.463ZM52.1769 642.158C51.9125 642.158 51.6903 641.968 51.648 641.714L51.2566 638.91C50.5901 638.646 50.0188 638.286 49.4687 637.863L46.8345 638.932C46.6018 639.016 46.3161 638.932 46.1892 638.699L44.0733 635.038C43.9358 634.806 43.9993 634.52 44.2003 634.361L46.4325 632.605L46.3584 631.579L46.4325 630.521L44.2003 628.797C43.9993 628.638 43.9358 628.352 44.0733 628.12L46.1892 624.459C46.3161 624.227 46.6018 624.131 46.8345 624.227L49.4687 625.285C50.0188 624.872 50.5901 624.512 51.2566 624.248L51.648 621.444C51.6903 621.19 51.9125 621 52.1769 621H56.4086C56.6731 621 56.8952 621.19 56.9375 621.444L57.329 624.248C57.9954 624.512 58.5667 624.872 59.1168 625.285L61.751 624.227C61.9838 624.131 62.2694 624.227 62.3963 624.459L64.5122 628.12C64.6497 628.352 64.5862 628.638 64.3852 628.797L62.153 630.521L62.2271 631.579L62.153 632.637L64.3852 634.361C64.5862 634.52 64.6497 634.806 64.5122 635.038L62.3963 638.699C62.2694 638.932 61.9838 639.027 61.751 638.932L59.1168 637.874C58.5667 638.286 57.9954 638.646 57.329 638.91L56.9375 641.714C56.8952 641.968 56.6731 642.158 56.4086 642.158H52.1769ZM53.4993 623.116L53.1079 625.877C51.8384 626.141 50.717 626.819 49.9024 627.76L47.3529 626.66L46.5594 628.035L48.7916 629.675C48.3685 630.913 48.3685 632.256 48.7916 633.483L46.5489 635.134L47.3423 636.509L49.913 635.409C50.7276 636.34 51.8384 637.017 53.0973 637.271L53.4887 640.042H55.0968L55.4882 637.281C56.7471 637.017 57.8579 636.34 58.6725 635.409L61.2432 636.509L62.0367 635.134L59.7939 633.494C60.2171 632.256 60.2171 630.913 59.7939 629.675L62.0261 628.035L61.2326 626.66L58.6831 627.76C57.8685 626.819 56.7471 626.141 55.4776 625.888L55.0862 623.116H53.4993Z" fill="#2F6CFE"/>
<path d="M116.697 655.39H115.214L117.474 648.844H119.257L121.513 655.39H120.031L118.391 650.34H118.34L116.697 655.39ZM116.604 652.817H120.107V653.897H116.604V652.817ZM124.265 655.486C123.762 655.486 123.33 655.379 122.968 655.166C122.608 654.951 122.331 654.653 122.137 654.271C121.945 653.89 121.849 653.451 121.849 652.954C121.849 652.452 121.946 652.011 122.14 651.631C122.336 651.25 122.614 650.953 122.974 650.74C123.334 650.524 123.762 650.417 124.259 650.417C124.687 650.417 125.062 650.495 125.384 650.65C125.706 650.806 125.96 651.024 126.148 651.305C126.335 651.587 126.439 651.917 126.458 652.296H125.173C125.137 652.051 125.041 651.854 124.885 651.705C124.732 651.554 124.531 651.478 124.281 651.478C124.07 651.478 123.886 651.535 123.728 651.65C123.573 651.763 123.451 651.929 123.364 652.146C123.277 652.363 123.233 652.626 123.233 652.935C123.233 653.248 123.276 653.515 123.361 653.734C123.448 653.954 123.571 654.121 123.728 654.236C123.886 654.351 124.07 654.409 124.281 654.409C124.437 654.409 124.576 654.377 124.7 654.313C124.826 654.249 124.929 654.156 125.01 654.035C125.093 653.911 125.147 653.763 125.173 653.59H126.458C126.436 653.965 126.334 654.296 126.151 654.581C125.97 654.865 125.719 655.086 125.4 655.246C125.08 655.406 124.702 655.486 124.265 655.486ZM129.941 650.481V651.503H126.984V650.481H129.941ZM127.655 649.305H129.017V653.881C129.017 654.007 129.036 654.105 129.074 654.175C129.113 654.244 129.166 654.291 129.234 654.319C129.305 654.347 129.386 654.361 129.477 654.361C129.541 654.361 129.605 654.355 129.669 654.345C129.733 654.332 129.782 654.322 129.816 654.316L130.03 655.329C129.962 655.35 129.866 655.375 129.742 655.403C129.619 655.432 129.469 655.451 129.292 655.457C128.964 655.47 128.676 655.426 128.429 655.326C128.184 655.226 127.993 655.07 127.857 654.859C127.72 654.648 127.653 654.382 127.655 654.06V649.305ZM130.828 655.39V650.481H132.189V655.39H130.828ZM131.511 649.848C131.309 649.848 131.135 649.781 130.991 649.647C130.848 649.51 130.776 649.347 130.776 649.158C130.776 648.97 130.848 648.809 130.991 648.675C131.135 648.539 131.309 648.47 131.511 648.47C131.714 648.47 131.886 648.539 132.029 648.675C132.174 648.809 132.247 648.97 132.247 649.158C132.247 649.347 132.174 649.51 132.029 649.647C131.886 649.781 131.714 649.848 131.511 649.848ZM135.498 655.486C135.001 655.486 134.572 655.38 134.21 655.169C133.85 654.956 133.572 654.66 133.376 654.281C133.18 653.899 133.081 653.457 133.081 652.954C133.081 652.447 133.18 652.004 133.376 651.625C133.572 651.244 133.85 650.947 134.21 650.736C134.572 650.523 135.001 650.417 135.498 650.417C135.994 650.417 136.422 650.523 136.782 650.736C137.145 650.947 137.424 651.244 137.62 651.625C137.816 652.004 137.914 652.447 137.914 652.954C137.914 653.457 137.816 653.899 137.62 654.281C137.424 654.66 137.145 654.956 136.782 655.169C136.422 655.38 135.994 655.486 135.498 655.486ZM135.504 654.431C135.73 654.431 135.919 654.367 136.07 654.239C136.221 654.109 136.335 653.932 136.412 653.709C136.491 653.485 136.53 653.23 136.53 652.945C136.53 652.659 136.491 652.405 136.412 652.181C136.335 651.957 136.221 651.78 136.07 651.65C135.919 651.521 135.73 651.456 135.504 651.456C135.276 651.456 135.084 651.521 134.929 651.65C134.775 651.78 134.659 651.957 134.58 652.181C134.504 652.405 134.465 652.659 134.465 652.945C134.465 653.23 134.504 653.485 134.58 653.709C134.659 653.932 134.775 654.109 134.929 654.239C135.084 654.367 135.276 654.431 135.504 654.431ZM140.161 652.552V655.39H138.799V650.481H140.097V651.347H140.154C140.263 651.061 140.445 650.835 140.701 650.669C140.956 650.501 141.267 650.417 141.631 650.417C141.972 650.417 142.269 650.491 142.523 650.641C142.776 650.79 142.973 651.003 143.114 651.28C143.254 651.555 143.325 651.883 143.325 652.264V655.39H141.963V652.507C141.965 652.207 141.889 651.972 141.733 651.804C141.578 651.633 141.363 651.548 141.091 651.548C140.907 651.548 140.746 651.588 140.605 651.666C140.466 651.745 140.358 651.86 140.279 652.012C140.202 652.161 140.163 652.341 140.161 652.552ZM146.257 649.985V648.844H151.633V649.985H149.629V655.39H148.261V649.985H146.257ZM152.898 655.39L151.562 650.481H152.94L153.701 653.779H153.745L154.538 650.481H155.89L156.695 653.76H156.737L157.485 650.481H158.859L157.526 655.39H156.085L155.241 652.302H155.18L154.337 655.39H152.898ZM161.68 655.486C161.184 655.486 160.755 655.38 160.392 655.169C160.032 654.956 159.754 654.66 159.558 654.281C159.362 653.899 159.264 653.457 159.264 652.954C159.264 652.447 159.362 652.004 159.558 651.625C159.754 651.244 160.032 650.947 160.392 650.736C160.755 650.523 161.184 650.417 161.68 650.417C162.177 650.417 162.605 650.523 162.965 650.736C163.327 650.947 163.606 651.244 163.802 651.625C163.998 652.004 164.097 652.447 164.097 652.954C164.097 653.457 163.998 653.899 163.802 654.281C163.606 654.66 163.327 654.956 162.965 655.169C162.605 655.38 162.177 655.486 161.68 655.486ZM161.687 654.431C161.913 654.431 162.101 654.367 162.252 654.239C162.404 654.109 162.518 653.932 162.594 653.709C162.673 653.485 162.713 653.23 162.713 652.945C162.713 652.659 162.673 652.405 162.594 652.181C162.518 651.957 162.404 651.78 162.252 651.65C162.101 651.521 161.913 651.456 161.687 651.456C161.459 651.456 161.267 651.521 161.111 651.65C160.958 651.78 160.842 651.957 160.763 652.181C160.686 652.405 160.648 652.659 160.648 652.945C160.648 653.23 160.686 653.485 160.763 653.709C160.842 653.932 160.958 654.109 161.111 654.239C161.267 654.367 161.459 654.431 161.687 654.431Z" fill="#5D5D5D"/>
<path d="M140.293 627.347C141.415 627.347 142.491 627.793 143.285 628.587C144.079 629.38 144.524 630.457 144.524 631.579C144.524 632.701 144.079 633.778 143.285 634.571C142.491 635.365 141.415 635.811 140.293 635.811C139.17 635.811 138.094 635.365 137.301 634.571C136.507 633.778 136.061 632.701 136.061 631.579C136.061 630.457 136.507 629.38 137.301 628.587C138.094 627.793 139.17 627.347 140.293 627.347ZM140.293 629.463C139.732 629.463 139.193 629.686 138.797 630.083C138.4 630.48 138.177 631.018 138.177 631.579C138.177 632.14 138.4 632.678 138.797 633.075C139.193 633.472 139.732 633.695 140.293 633.695C140.854 633.695 141.392 633.472 141.789 633.075C142.186 632.678 142.409 632.14 142.409 631.579C142.409 631.018 142.186 630.48 141.789 630.083C141.392 629.686 140.854 629.463 140.293 629.463ZM138.177 642.158C137.912 642.158 137.69 641.968 137.648 641.714L137.257 638.91C136.59 638.646 136.019 638.286 135.469 637.863L132.834 638.932C132.602 639.016 132.316 638.932 132.189 638.699L130.073 635.038C129.936 634.806 129.999 634.52 130.2 634.361L132.432 632.605L132.358 631.579L132.432 630.521L130.2 628.797C129.999 628.638 129.936 628.352 130.073 628.12L132.189 624.459C132.316 624.227 132.602 624.131 132.834 624.227L135.469 625.285C136.019 624.872 136.59 624.512 137.257 624.248L137.648 621.444C137.69 621.19 137.912 621 138.177 621H142.409C142.673 621 142.895 621.19 142.938 621.444L143.329 624.248C143.995 624.512 144.567 624.872 145.117 625.285L147.751 624.227C147.984 624.131 148.269 624.227 148.396 624.459L150.512 628.12C150.65 628.352 150.586 628.638 150.385 628.797L148.153 630.521L148.227 631.579L148.153 632.637L150.385 634.361C150.586 634.52 150.65 634.806 150.512 635.038L148.396 638.699C148.269 638.932 147.984 639.027 147.751 638.932L145.117 637.874C144.567 638.286 143.995 638.646 143.329 638.91L142.938 641.714C142.895 641.968 142.673 642.158 142.409 642.158H138.177ZM139.499 623.116L139.108 625.877C137.838 626.141 136.717 626.819 135.902 627.76L133.353 626.66L132.559 628.035L134.792 629.675C134.368 630.913 134.368 632.256 134.792 633.483L132.549 635.134L133.342 636.509L135.913 635.409C136.728 636.34 137.838 637.017 139.097 637.271L139.489 640.042H141.097L141.488 637.281C142.747 637.017 143.858 636.34 144.672 635.409L147.243 636.509L148.037 635.134L145.794 633.494C146.217 632.256 146.217 630.913 145.794 629.675L148.026 628.035L147.233 626.66L144.683 627.76C143.868 626.819 142.747 626.141 141.478 625.888L141.086 623.116H139.499Z" fill="#5D5D5D"/>
<path d="M202.697 655H201.214L203.474 648.455H205.257L207.513 655H206.031L204.391 649.95H204.34L202.697 655ZM202.604 652.427H206.107V653.507H202.604V652.427ZM210.265 655.096C209.762 655.096 209.33 654.989 208.968 654.776C208.608 654.561 208.331 654.263 208.137 653.881C207.945 653.5 207.849 653.061 207.849 652.565C207.849 652.062 207.946 651.621 208.14 651.241C208.336 650.86 208.614 650.563 208.974 650.35C209.334 650.135 209.762 650.027 210.259 650.027C210.687 650.027 211.062 650.105 211.384 650.26C211.706 650.416 211.96 650.634 212.148 650.915C212.335 651.197 212.439 651.527 212.458 651.906H211.173C211.137 651.661 211.041 651.464 210.885 651.315C210.732 651.164 210.531 651.088 210.281 651.088C210.07 651.088 209.886 651.146 209.728 651.261C209.573 651.374 209.451 651.539 209.364 651.756C209.277 651.973 209.233 652.237 209.233 652.545C209.233 652.859 209.276 653.125 209.361 653.344C209.448 653.564 209.571 653.731 209.728 653.846C209.886 653.961 210.07 654.019 210.281 654.019C210.437 654.019 210.576 653.987 210.7 653.923C210.826 653.859 210.929 653.766 211.01 653.645C211.093 653.521 211.147 653.373 211.173 653.201H212.458C212.436 653.576 212.334 653.906 212.151 654.191C211.97 654.475 211.719 654.696 211.4 654.856C211.08 655.016 210.702 655.096 210.265 655.096ZM215.941 650.091V651.114H212.984V650.091H215.941ZM213.655 648.915H215.017V653.491C215.017 653.617 215.036 653.715 215.074 653.786C215.113 653.854 215.166 653.902 215.234 653.929C215.305 653.957 215.386 653.971 215.477 653.971C215.541 653.971 215.605 653.966 215.669 653.955C215.733 653.942 215.782 653.933 215.816 653.926L216.03 654.939C215.962 654.961 215.866 654.985 215.742 655.013C215.619 655.043 215.469 655.061 215.292 655.067C214.964 655.08 214.676 655.036 214.429 654.936C214.184 654.836 213.993 654.68 213.857 654.469C213.72 654.259 213.653 653.992 213.655 653.67V648.915ZM216.828 655V650.091H218.189V655H216.828ZM217.511 649.458C217.309 649.458 217.135 649.391 216.991 649.257C216.848 649.12 216.776 648.957 216.776 648.768C216.776 648.58 216.848 648.419 216.991 648.285C217.135 648.149 217.309 648.081 217.511 648.081C217.714 648.081 217.886 648.149 218.029 648.285C218.174 648.419 218.247 648.58 218.247 648.768C218.247 648.957 218.174 649.12 218.029 649.257C217.886 649.391 217.714 649.458 217.511 649.458ZM221.498 655.096C221.001 655.096 220.572 654.99 220.21 654.779C219.85 654.566 219.572 654.27 219.376 653.891C219.18 653.51 219.081 653.067 219.081 652.565C219.081 652.058 219.18 651.614 219.376 651.235C219.572 650.854 219.85 650.558 220.21 650.347C220.572 650.134 221.001 650.027 221.498 650.027C221.994 650.027 222.422 650.134 222.782 650.347C223.145 650.558 223.424 650.854 223.62 651.235C223.816 651.614 223.914 652.058 223.914 652.565C223.914 653.067 223.816 653.51 223.62 653.891C223.424 654.27 223.145 654.566 222.782 654.779C222.422 654.99 221.994 655.096 221.498 655.096ZM221.504 654.041C221.73 654.041 221.919 653.977 222.07 653.849C222.221 653.719 222.335 653.543 222.412 653.319C222.491 653.095 222.53 652.841 222.53 652.555C222.53 652.27 222.491 652.015 222.412 651.791C222.335 651.567 222.221 651.391 222.07 651.261C221.919 651.131 221.73 651.066 221.504 651.066C221.276 651.066 221.084 651.131 220.929 651.261C220.775 651.391 220.659 651.567 220.58 651.791C220.504 652.015 220.465 652.27 220.465 652.555C220.465 652.841 220.504 653.095 220.58 653.319C220.659 653.543 220.775 653.719 220.929 653.849C221.084 653.977 221.276 654.041 221.504 654.041ZM226.161 652.162V655H224.799V650.091H226.097V650.957H226.154C226.263 650.672 226.445 650.446 226.701 650.279C226.956 650.111 227.267 650.027 227.631 650.027C227.972 650.027 228.269 650.102 228.523 650.251C228.776 650.4 228.973 650.613 229.114 650.89C229.254 651.165 229.325 651.493 229.325 651.874V655H227.963V652.117C227.965 651.817 227.889 651.582 227.733 651.414C227.578 651.244 227.363 651.158 227.091 651.158C226.907 651.158 226.746 651.198 226.605 651.277C226.466 651.355 226.358 651.471 226.279 651.622C226.202 651.771 226.163 651.951 226.161 652.162ZM232.257 649.596V648.455H237.633V649.596H235.629V655H234.261V649.596H232.257ZM239.854 652.162V655H238.493V648.455H239.816V650.957H239.873C239.984 650.667 240.163 650.44 240.41 650.276C240.657 650.11 240.967 650.027 241.34 650.027C241.681 650.027 241.978 650.102 242.232 650.251C242.488 650.398 242.686 650.61 242.826 650.887C242.969 651.162 243.039 651.491 243.037 651.874V655H241.676V652.117C241.678 651.815 241.601 651.579 241.446 651.411C241.292 651.243 241.077 651.158 240.8 651.158C240.615 651.158 240.451 651.198 240.308 651.277C240.167 651.355 240.056 651.471 239.975 651.622C239.897 651.771 239.856 651.951 239.854 652.162ZM244.109 655V650.091H245.429V650.947H245.48C245.569 650.643 245.72 650.413 245.93 650.257C246.141 650.099 246.384 650.021 246.659 650.021C246.727 650.021 246.801 650.025 246.88 650.033C246.959 650.042 247.028 650.054 247.087 650.069V651.277C247.024 651.257 246.935 651.24 246.822 651.225C246.709 651.211 246.606 651.203 246.512 651.203C246.312 651.203 246.133 651.247 245.975 651.334C245.82 651.419 245.696 651.539 245.604 651.692C245.515 651.846 245.47 652.022 245.47 652.223V655H244.109ZM249.8 655.096C249.295 655.096 248.86 654.994 248.496 654.789C248.134 654.582 247.855 654.29 247.659 653.913C247.463 653.534 247.365 653.086 247.365 652.568C247.365 652.063 247.463 651.62 247.659 651.238C247.855 650.857 248.131 650.56 248.487 650.347C248.844 650.134 249.264 650.027 249.746 650.027C250.07 650.027 250.371 650.079 250.65 650.184C250.931 650.286 251.176 650.44 251.385 650.647C251.596 650.854 251.76 651.114 251.877 651.427C251.995 651.738 252.053 652.102 252.053 652.52V652.894H247.908V652.05H250.772C250.772 651.854 250.729 651.68 250.644 651.529C250.559 651.378 250.44 651.26 250.289 651.174C250.14 651.087 249.966 651.043 249.768 651.043C249.561 651.043 249.378 651.091 249.218 651.187C249.061 651.281 248.937 651.408 248.848 651.567C248.758 651.725 248.712 651.901 248.71 652.095V652.897C248.71 653.14 248.755 653.35 248.844 653.527C248.936 653.703 249.065 653.84 249.231 653.936C249.397 654.032 249.594 654.08 249.822 654.08C249.974 654.08 250.112 654.058 250.238 654.016C250.364 653.973 250.471 653.909 250.561 653.824C250.65 653.739 250.718 653.634 250.765 653.511L252.025 653.594C251.961 653.896 251.83 654.161 251.631 654.386C251.435 654.61 251.182 654.785 250.871 654.911C250.562 655.034 250.205 655.096 249.8 655.096ZM255.179 655.096C254.674 655.096 254.239 654.994 253.875 654.789C253.513 654.582 253.234 654.29 253.038 653.913C252.842 653.534 252.744 653.086 252.744 652.568C252.744 652.063 252.842 651.62 253.038 651.238C253.234 650.857 253.51 650.56 253.865 650.347C254.223 650.134 254.643 650.027 255.125 650.027C255.449 650.027 255.75 650.079 256.029 650.184C256.31 650.286 256.555 650.44 256.764 650.647C256.975 650.854 257.139 651.114 257.256 651.427C257.374 651.738 257.432 652.102 257.432 652.52V652.894H253.287V652.05H256.151C256.151 651.854 256.108 651.68 256.023 651.529C255.938 651.378 255.819 651.26 255.668 651.174C255.519 651.087 255.345 651.043 255.147 651.043C254.94 651.043 254.757 651.091 254.597 651.187C254.44 651.281 254.316 651.408 254.227 651.567C254.137 651.725 254.091 651.901 254.089 652.095V652.897C254.089 653.14 254.134 653.35 254.223 653.527C254.315 653.703 254.444 653.84 254.61 653.936C254.776 654.032 254.973 654.08 255.201 654.08C255.353 654.08 255.491 654.058 255.617 654.016C255.743 653.973 255.85 653.909 255.94 653.824C256.029 653.739 256.097 653.634 256.144 653.511L257.403 653.594C257.339 653.896 257.208 654.161 257.01 654.386C256.814 654.61 256.561 654.785 256.25 654.911C255.941 655.034 255.584 655.096 255.179 655.096Z" fill="#5D5D5D"/>
<path d="M229.293 627.347C230.415 627.347 231.491 627.793 232.285 628.587C233.079 629.38 233.524 630.457 233.524 631.579C233.524 632.701 233.079 633.778 232.285 634.571C231.491 635.365 230.415 635.811 229.293 635.811C228.17 635.811 227.094 635.365 226.301 634.571C225.507 633.778 225.061 632.701 225.061 631.579C225.061 630.457 225.507 629.38 226.301 628.587C227.094 627.793 228.17 627.347 229.293 627.347ZM229.293 629.463C228.732 629.463 228.193 629.686 227.797 630.083C227.4 630.48 227.177 631.018 227.177 631.579C227.177 632.14 227.4 632.678 227.797 633.075C228.193 633.472 228.732 633.695 229.293 633.695C229.854 633.695 230.392 633.472 230.789 633.075C231.186 632.678 231.409 632.14 231.409 631.579C231.409 631.018 231.186 630.48 230.789 630.083C230.392 629.686 229.854 629.463 229.293 629.463ZM227.177 642.158C226.912 642.158 226.69 641.968 226.648 641.714L226.257 638.91C225.59 638.646 225.019 638.286 224.469 637.863L221.834 638.932C221.602 639.016 221.316 638.932 221.189 638.699L219.073 635.038C218.936 634.806 218.999 634.52 219.2 634.361L221.432 632.605L221.358 631.579L221.432 630.521L219.2 628.797C218.999 628.638 218.936 628.352 219.073 628.12L221.189 624.459C221.316 624.227 221.602 624.131 221.834 624.227L224.469 625.285C225.019 624.872 225.59 624.512 226.257 624.248L226.648 621.444C226.69 621.19 226.912 621 227.177 621H231.409C231.673 621 231.895 621.19 231.938 621.444L232.329 624.248C232.995 624.512 233.567 624.872 234.117 625.285L236.751 624.227C236.984 624.131 237.269 624.227 237.396 624.459L239.512 628.12C239.65 628.352 239.586 628.638 239.385 628.797L237.153 630.521L237.227 631.579L237.153 632.637L239.385 634.361C239.586 634.52 239.65 634.806 239.512 635.038L237.396 638.699C237.269 638.932 236.984 639.027 236.751 638.932L234.117 637.874C233.567 638.286 232.995 638.646 232.329 638.91L231.938 641.714C231.895 641.968 231.673 642.158 231.409 642.158H227.177ZM228.499 623.116L228.108 625.877C226.838 626.141 225.717 626.819 224.902 627.76L222.353 626.66L221.559 628.035L223.792 629.675C223.368 630.913 223.368 632.256 223.792 633.483L221.549 635.134L222.342 636.509L224.913 635.409C225.728 636.34 226.838 637.017 228.097 637.271L228.489 640.042H230.097L230.488 637.281C231.747 637.017 232.858 636.34 233.672 635.409L236.243 636.509L237.037 635.134L234.794 633.494C235.217 632.256 235.217 630.913 234.794 629.675L237.026 628.035L236.233 626.66L233.683 627.76C232.868 626.819 231.747 626.141 230.478 625.888L230.086 623.116H228.499Z" fill="#5D5D5D"/>
<path d="M295.697 655.39H294.214L296.474 648.844H298.257L300.513 655.39H299.031L297.391 650.34H297.34L295.697 655.39ZM295.604 652.817H299.107V653.897H295.604V652.817ZM303.265 655.486C302.762 655.486 302.33 655.379 301.968 655.166C301.608 654.951 301.331 654.653 301.137 654.271C300.945 653.89 300.849 653.451 300.849 652.954C300.849 652.452 300.946 652.011 301.14 651.631C301.336 651.25 301.614 650.953 301.974 650.74C302.334 650.524 302.762 650.417 303.259 650.417C303.687 650.417 304.062 650.495 304.384 650.65C304.706 650.806 304.96 651.024 305.148 651.305C305.335 651.587 305.439 651.917 305.458 652.296H304.173C304.137 652.051 304.041 651.854 303.885 651.705C303.732 651.554 303.531 651.478 303.281 651.478C303.07 651.478 302.886 651.535 302.728 651.65C302.573 651.763 302.451 651.929 302.364 652.146C302.277 652.363 302.233 652.626 302.233 652.935C302.233 653.248 302.276 653.515 302.361 653.734C302.448 653.954 302.571 654.121 302.728 654.236C302.886 654.351 303.07 654.409 303.281 654.409C303.437 654.409 303.576 654.377 303.7 654.313C303.826 654.249 303.929 654.156 304.01 654.035C304.093 653.911 304.147 653.763 304.173 653.59H305.458C305.436 653.965 305.334 654.296 305.151 654.581C304.97 654.865 304.719 655.086 304.4 655.246C304.08 655.406 303.702 655.486 303.265 655.486ZM308.941 650.481V651.503H305.984V650.481H308.941ZM306.655 649.305H308.017V653.881C308.017 654.007 308.036 654.105 308.074 654.175C308.113 654.244 308.166 654.291 308.234 654.319C308.305 654.347 308.386 654.361 308.477 654.361C308.541 654.361 308.605 654.355 308.669 654.345C308.733 654.332 308.782 654.322 308.816 654.316L309.03 655.329C308.962 655.35 308.866 655.375 308.742 655.403C308.619 655.432 308.469 655.451 308.292 655.457C307.964 655.47 307.676 655.426 307.429 655.326C307.184 655.226 306.993 655.07 306.857 654.859C306.72 654.648 306.653 654.382 306.655 654.06V649.305ZM309.828 655.39V650.481H311.189V655.39H309.828ZM310.511 649.848C310.309 649.848 310.135 649.781 309.991 649.647C309.848 649.51 309.776 649.347 309.776 649.158C309.776 648.97 309.848 648.809 309.991 648.675C310.135 648.539 310.309 648.47 310.511 648.47C310.714 648.47 310.886 648.539 311.029 648.675C311.174 648.809 311.247 648.97 311.247 649.158C311.247 649.347 311.174 649.51 311.029 649.647C310.886 649.781 310.714 649.848 310.511 649.848ZM314.498 655.486C314.001 655.486 313.572 655.38 313.21 655.169C312.85 654.956 312.572 654.66 312.376 654.281C312.18 653.899 312.081 653.457 312.081 652.954C312.081 652.447 312.18 652.004 312.376 651.625C312.572 651.244 312.85 650.947 313.21 650.736C313.572 650.523 314.001 650.417 314.498 650.417C314.994 650.417 315.422 650.523 315.782 650.736C316.145 650.947 316.424 651.244 316.62 651.625C316.816 652.004 316.914 652.447 316.914 652.954C316.914 653.457 316.816 653.899 316.62 654.281C316.424 654.66 316.145 654.956 315.782 655.169C315.422 655.38 314.994 655.486 314.498 655.486ZM314.504 654.431C314.73 654.431 314.919 654.367 315.07 654.239C315.221 654.109 315.335 653.932 315.412 653.709C315.491 653.485 315.53 653.23 315.53 652.945C315.53 652.659 315.491 652.405 315.412 652.181C315.335 651.957 315.221 651.78 315.07 651.65C314.919 651.521 314.73 651.456 314.504 651.456C314.276 651.456 314.084 651.521 313.929 651.65C313.775 651.78 313.659 651.957 313.58 652.181C313.504 652.405 313.465 652.659 313.465 652.945C313.465 653.23 313.504 653.485 313.58 653.709C313.659 653.932 313.775 654.109 313.929 654.239C314.084 654.367 314.276 654.431 314.504 654.431ZM319.161 652.552V655.39H317.799V650.481H319.097V651.347H319.154C319.263 651.061 319.445 650.835 319.701 650.669C319.956 650.501 320.267 650.417 320.631 650.417C320.972 650.417 321.269 650.491 321.523 650.641C321.776 650.79 321.973 651.003 322.114 651.28C322.254 651.555 322.325 651.883 322.325 652.264V655.39H320.963V652.507C320.965 652.207 320.889 651.972 320.733 651.804C320.578 651.633 320.363 651.548 320.091 651.548C319.907 651.548 319.746 651.588 319.605 651.666C319.466 651.745 319.358 651.86 319.279 652.012C319.202 652.161 319.163 652.341 319.161 652.552ZM325.506 655.39V648.844H329.84V649.985H326.89V651.545H329.553V652.686H326.89V655.39H325.506ZM332.603 655.486C332.107 655.486 331.677 655.38 331.315 655.169C330.955 654.956 330.677 654.66 330.481 654.281C330.285 653.899 330.187 653.457 330.187 652.954C330.187 652.447 330.285 652.004 330.481 651.625C330.677 651.244 330.955 650.947 331.315 650.736C331.677 650.523 332.107 650.417 332.603 650.417C333.1 650.417 333.528 650.523 333.888 650.736C334.25 650.947 334.529 651.244 334.725 651.625C334.921 652.004 335.019 652.447 335.019 652.954C335.019 653.457 334.921 653.899 334.725 654.281C334.529 654.66 334.25 654.956 333.888 655.169C333.528 655.38 333.1 655.486 332.603 655.486ZM332.61 654.431C332.835 654.431 333.024 654.367 333.175 654.239C333.327 654.109 333.441 653.932 333.517 653.709C333.596 653.485 333.635 653.23 333.635 652.945C333.635 652.659 333.596 652.405 333.517 652.181C333.441 651.957 333.327 651.78 333.175 651.65C333.024 651.521 332.835 651.456 332.61 651.456C332.382 651.456 332.19 651.521 332.034 651.65C331.881 651.78 331.765 651.957 331.686 652.181C331.609 652.405 331.571 652.659 331.571 652.945C331.571 653.23 331.609 653.485 331.686 653.709C331.765 653.932 331.881 654.109 332.034 654.239C332.19 654.367 332.382 654.431 332.61 654.431ZM339.053 653.3V650.481H340.414V655.39H339.107V654.498H339.056C338.945 654.786 338.761 655.017 338.503 655.192C338.247 655.366 337.935 655.454 337.567 655.454C337.238 655.454 336.95 655.379 336.7 655.23C336.451 655.081 336.256 654.869 336.116 654.594C335.977 654.319 335.907 653.99 335.905 653.606V650.481H337.266V653.364C337.268 653.653 337.346 653.882 337.499 654.051C337.653 654.219 337.858 654.303 338.116 654.303C338.28 654.303 338.434 654.266 338.577 654.191C338.719 654.115 338.834 654.002 338.922 653.853C339.011 653.703 339.055 653.519 339.053 653.3ZM341.503 655.39V650.481H342.823V651.337H342.874C342.964 651.033 343.114 650.802 343.325 650.647C343.536 650.489 343.779 650.41 344.054 650.41C344.122 650.41 344.195 650.415 344.274 650.423C344.353 650.432 344.422 650.443 344.482 650.458V651.666C344.418 651.647 344.33 651.63 344.217 651.615C344.104 651.6 344 651.593 343.907 651.593C343.706 651.593 343.527 651.637 343.37 651.724C343.214 651.809 343.091 651.929 342.999 652.082C342.91 652.235 342.865 652.412 342.865 652.612V655.39H341.503Z" fill="#5D5D5D"/>
<path d="M319.293 627.347C320.415 627.347 321.491 627.793 322.285 628.587C323.079 629.38 323.524 630.457 323.524 631.579C323.524 632.701 323.079 633.778 322.285 634.571C321.491 635.365 320.415 635.811 319.293 635.811C318.17 635.811 317.094 635.365 316.301 634.571C315.507 633.778 315.061 632.701 315.061 631.579C315.061 630.457 315.507 629.38 316.301 628.587C317.094 627.793 318.17 627.347 319.293 627.347ZM319.293 629.463C318.732 629.463 318.193 629.686 317.797 630.083C317.4 630.48 317.177 631.018 317.177 631.579C317.177 632.14 317.4 632.678 317.797 633.075C318.193 633.472 318.732 633.695 319.293 633.695C319.854 633.695 320.392 633.472 320.789 633.075C321.186 632.678 321.409 632.14 321.409 631.579C321.409 631.018 321.186 630.48 320.789 630.083C320.392 629.686 319.854 629.463 319.293 629.463ZM317.177 642.158C316.912 642.158 316.69 641.968 316.648 641.714L316.257 638.91C315.59 638.646 315.019 638.286 314.469 637.863L311.834 638.932C311.602 639.016 311.316 638.932 311.189 638.699L309.073 635.038C308.936 634.806 308.999 634.52 309.2 634.361L311.432 632.605L311.358 631.579L311.432 630.521L309.2 628.797C308.999 628.638 308.936 628.352 309.073 628.12L311.189 624.459C311.316 624.227 311.602 624.131 311.834 624.227L314.469 625.285C315.019 624.872 315.59 624.512 316.257 624.248L316.648 621.444C316.69 621.19 316.912 621 317.177 621H321.409C321.673 621 321.895 621.19 321.938 621.444L322.329 624.248C322.995 624.512 323.567 624.872 324.117 625.285L326.751 624.227C326.984 624.131 327.269 624.227 327.396 624.459L329.512 628.12C329.65 628.352 329.586 628.638 329.385 628.797L327.153 630.521L327.227 631.579L327.153 632.637L329.385 634.361C329.586 634.52 329.65 634.806 329.512 635.038L327.396 638.699C327.269 638.932 326.984 639.027 326.751 638.932L324.117 637.874C323.567 638.286 322.995 638.646 322.329 638.91L321.938 641.714C321.895 641.968 321.673 642.158 321.409 642.158H317.177ZM318.499 623.116L318.108 625.877C316.838 626.141 315.717 626.819 314.902 627.76L312.353 626.66L311.559 628.035L313.792 629.675C313.368 630.913 313.368 632.256 313.792 633.483L311.549 635.134L312.342 636.509L314.913 635.409C315.728 636.34 316.838 637.017 318.097 637.271L318.489 640.042H320.097L320.488 637.281C321.747 637.017 322.858 636.34 323.672 635.409L326.243 636.509L327.037 635.134L324.794 633.494C325.217 632.256 325.217 630.913 324.794 629.675L327.026 628.035L326.233 626.66L323.683 627.76C322.868 626.819 321.747 626.141 320.478 625.888L320.086 623.116H318.499Z" fill="#5D5D5D"/>
</svg>
