<svg width="375" height="667" viewBox="0 0 375 667" fill="none" xmlns="http://www.w3.org/2000/svg">
<path opacity="0.75" d="M0 8C0 3.58172 3.58172 0 8 0H367C371.418 0 375 3.58172 375 8V659C375 663.418 371.418 667 367 667H8C3.58172 667 0 663.418 0 659V8Z" fill="#D9D9D9"/>
<path d="M0 8C0 3.58172 3.58172 0 8 0H367C371.418 0 375 3.58172 375 8V55H0V8Z" fill="white"/>
<circle cx="293" cy="30" r="10" fill="#2F6DFE"/>
<circle cx="257" cy="30" r="10" fill="#2F6DFE"/>
<rect x="16" y="16" width="80" height="24" fill="#2F6DFE"/>
<path d="M335 20C335 18.8954 335.895 18 337 18H357C358.105 18 359 18.8954 359 20C359 21.1046 358.105 22 357 22H337C335.895 22 335 21.1046 335 20Z" fill="#2F6DFE"/>
<path d="M335 28C335 26.8954 335.895 26 337 26H357C358.105 26 359 26.8954 359 28C359 29.1046 358.105 30 357 30H337C335.895 30 335 29.1046 335 28Z" fill="#2F6DFE"/>
<path d="M335 36C335 34.8954 335.895 34 337 34H357C358.105 34 359 34.8954 359 36C359 37.1046 358.105 38 357 38H337C335.895 38 335 37.1046 335 36Z" fill="#2F6DFE"/>
</svg>
