<svg width="1440" height="640" viewBox="0 0 1440 640" fill="none" xmlns="http://www.w3.org/2000/svg">
<rect width="1440" height="640" fill="#D9D9D9"/>
<path d="M0 0H1440V64C1440 72.8366 1432.84 80 1424 80H16C7.16349 80 0 72.8366 0 64V0Z" fill="white"/>
<path d="M66.0227 52V28.7273H70.9432V47.9432H80.9205V52H66.0227ZM104.659 40.3636C104.659 42.9015 104.178 45.0606 103.216 46.8409C102.261 48.6212 100.958 49.9811 99.3068 50.9205C97.6629 51.8523 95.8144 52.3182 93.7614 52.3182C91.6932 52.3182 89.8371 51.8485 88.1932 50.9091C86.5492 49.9697 85.25 48.6098 84.2955 46.8295C83.3409 45.0492 82.8636 42.8939 82.8636 40.3636C82.8636 37.8258 83.3409 35.6667 84.2955 33.8864C85.25 32.1061 86.5492 30.75 88.1932 29.8182C89.8371 28.8788 91.6932 28.4091 93.7614 28.4091C95.8144 28.4091 97.6629 28.8788 99.3068 29.8182C100.958 30.75 102.261 32.1061 103.216 33.8864C104.178 35.6667 104.659 37.8258 104.659 40.3636ZM99.6705 40.3636C99.6705 38.7197 99.4242 37.3333 98.9318 36.2045C98.447 35.0758 97.7614 34.2197 96.875 33.6364C95.9886 33.053 94.9508 32.7614 93.7614 32.7614C92.572 32.7614 91.5341 33.053 90.6477 33.6364C89.7614 34.2197 89.072 35.0758 88.5795 36.2045C88.0947 37.3333 87.8523 38.7197 87.8523 40.3636C87.8523 42.0076 88.0947 43.3939 88.5795 44.5227C89.072 45.6515 89.7614 46.5076 90.6477 47.0909C91.5341 47.6742 92.572 47.9659 93.7614 47.9659C94.9508 47.9659 95.9886 47.6742 96.875 47.0909C97.7614 46.5076 98.447 45.6515 98.9318 44.5227C99.4242 43.3939 99.6705 42.0076 99.6705 40.3636ZM123.736 36.25C123.577 35.697 123.353 35.2083 123.065 34.7841C122.777 34.3523 122.425 33.9886 122.009 33.6932C121.599 33.3902 121.13 33.1591 120.599 33C120.077 32.8409 119.497 32.7614 118.861 32.7614C117.671 32.7614 116.626 33.0568 115.724 33.6477C114.83 34.2386 114.134 35.0985 113.634 36.2273C113.134 37.3485 112.884 38.7197 112.884 40.3409C112.884 41.9621 113.13 43.3409 113.622 44.4773C114.115 45.6136 114.812 46.4811 115.713 47.0795C116.615 47.6705 117.679 47.9659 118.906 47.9659C120.02 47.9659 120.971 47.7689 121.759 47.375C122.554 46.9735 123.16 46.4091 123.577 45.6818C124.001 44.9545 124.213 44.0947 124.213 43.1023L125.213 43.25H119.213V39.5455H128.952V42.4773C128.952 44.5227 128.52 46.2803 127.656 47.75C126.793 49.2121 125.603 50.3409 124.088 51.1364C122.573 51.9242 120.838 52.3182 118.884 52.3182C116.702 52.3182 114.785 51.8371 113.134 50.875C111.482 49.9053 110.194 48.5303 109.27 46.75C108.353 44.9621 107.895 42.8409 107.895 40.3864C107.895 38.5 108.168 36.8182 108.713 35.3409C109.266 33.8561 110.039 32.5985 111.031 31.5682C112.024 30.5379 113.179 29.7538 114.497 29.2159C115.815 28.678 117.243 28.4091 118.781 28.4091C120.099 28.4091 121.327 28.6023 122.463 28.9886C123.599 29.3674 124.607 29.9053 125.486 30.6023C126.372 31.2992 127.096 32.1288 127.656 33.0909C128.217 34.0455 128.577 35.0985 128.736 36.25H123.736ZM154.034 40.3636C154.034 42.9015 153.553 45.0606 152.591 46.8409C151.636 48.6212 150.333 49.9811 148.682 50.9205C147.038 51.8523 145.189 52.3182 143.136 52.3182C141.068 52.3182 139.212 51.8485 137.568 50.9091C135.924 49.9697 134.625 48.6098 133.67 46.8295C132.716 45.0492 132.239 42.8939 132.239 40.3636C132.239 37.8258 132.716 35.6667 133.67 33.8864C134.625 32.1061 135.924 30.75 137.568 29.8182C139.212 28.8788 141.068 28.4091 143.136 28.4091C145.189 28.4091 147.038 28.8788 148.682 29.8182C150.333 30.75 151.636 32.1061 152.591 33.8864C153.553 35.6667 154.034 37.8258 154.034 40.3636ZM149.045 40.3636C149.045 38.7197 148.799 37.3333 148.307 36.2045C147.822 35.0758 147.136 34.2197 146.25 33.6364C145.364 33.053 144.326 32.7614 143.136 32.7614C141.947 32.7614 140.909 33.053 140.023 33.6364C139.136 34.2197 138.447 35.0758 137.955 36.2045C137.47 37.3333 137.227 38.7197 137.227 40.3636C137.227 42.0076 137.47 43.3939 137.955 44.5227C138.447 45.6515 139.136 46.5076 140.023 47.0909C140.909 47.6742 141.947 47.9659 143.136 47.9659C144.326 47.9659 145.364 47.6742 146.25 47.0909C147.136 46.5076 147.822 45.6515 148.307 44.5227C148.799 43.3939 149.045 42.0076 149.045 40.3636Z" fill="#2F6DFE"/>
<path d="M691.472 34.3636V46H689.011V34.3636H691.472ZM698.092 37.2727V39.0909H692.837V37.2727H698.092ZM694.03 35.1818H696.45V43.3182C696.45 43.5417 696.484 43.7159 696.553 43.8409C696.621 43.9621 696.715 44.0473 696.837 44.0966C696.962 44.1458 697.106 44.1705 697.268 44.1705C697.382 44.1705 697.496 44.161 697.609 44.142C697.723 44.1193 697.81 44.1023 697.871 44.0909L698.251 45.892C698.13 45.9299 697.96 45.9735 697.74 46.0227C697.52 46.0758 697.253 46.108 696.939 46.1193C696.356 46.142 695.844 46.0644 695.405 45.8864C694.969 45.7083 694.63 45.4318 694.388 45.0568C694.145 44.6818 694.026 44.2083 694.03 43.6364V35.1818ZM703.553 46.1705C702.655 46.1705 701.882 45.9886 701.234 45.625C700.59 45.2576 700.094 44.7386 699.746 44.0682C699.397 43.3939 699.223 42.5966 699.223 41.6761C699.223 40.7784 699.397 39.9905 699.746 39.3125C700.094 38.6345 700.585 38.1061 701.217 37.7273C701.854 37.3485 702.6 37.1591 703.456 37.1591C704.032 37.1591 704.568 37.2519 705.064 37.4375C705.564 37.6193 706 37.8939 706.371 38.2614C706.746 38.6288 707.037 39.0909 707.246 39.6477C707.454 40.2008 707.558 40.8485 707.558 41.5909V42.2557H700.189V40.7557H705.28C705.28 40.4072 705.204 40.0985 705.053 39.8295C704.901 39.5606 704.691 39.3504 704.422 39.1989C704.157 39.0436 703.848 38.9659 703.496 38.9659C703.128 38.9659 702.803 39.0511 702.518 39.2216C702.238 39.3883 702.018 39.6136 701.859 39.8977C701.7 40.178 701.619 40.4905 701.615 40.8352V42.2614C701.615 42.6932 701.695 43.0663 701.854 43.3807C702.017 43.6951 702.246 43.9375 702.541 44.108C702.837 44.2784 703.187 44.3636 703.592 44.3636C703.861 44.3636 704.107 44.3258 704.331 44.25C704.554 44.1742 704.746 44.0606 704.905 43.9091C705.064 43.7576 705.185 43.572 705.268 43.3523L707.507 43.5C707.393 44.0379 707.161 44.5076 706.808 44.9091C706.46 45.3068 706.009 45.6174 705.456 45.8409C704.907 46.0606 704.272 46.1705 703.553 46.1705ZM709.138 46V37.2727H711.445V38.8125H711.547C711.729 38.3011 712.032 37.8977 712.456 37.6023C712.88 37.3068 713.388 37.1591 713.979 37.1591C714.577 37.1591 715.087 37.3087 715.507 37.608C715.928 37.9034 716.208 38.3049 716.348 38.8125H716.439C716.617 38.3125 716.939 37.9129 717.405 37.6136C717.875 37.3106 718.429 37.1591 719.07 37.1591C719.884 37.1591 720.545 37.4186 721.053 37.9375C721.564 38.4527 721.82 39.1837 721.82 40.1307V46H719.405V40.608C719.405 40.1231 719.276 39.7595 719.018 39.517C718.761 39.2746 718.439 39.1534 718.053 39.1534C717.613 39.1534 717.27 39.2936 717.024 39.5739C716.778 39.8504 716.655 40.2159 716.655 40.6705V46H714.308V40.5568C714.308 40.1288 714.185 39.7879 713.939 39.5341C713.696 39.2803 713.376 39.1534 712.979 39.1534C712.71 39.1534 712.467 39.2216 712.251 39.358C712.039 39.4905 711.871 39.678 711.746 39.9205C711.621 40.1591 711.558 40.4394 711.558 40.7614V46H709.138ZM731.378 46.1705C730.495 46.1705 729.732 45.983 729.088 45.608C728.448 45.2292 727.954 44.7027 727.605 44.0284C727.257 43.3504 727.082 42.5644 727.082 41.6705C727.082 40.7689 727.257 39.9811 727.605 39.3068C727.954 38.6288 728.448 38.1023 729.088 37.7273C729.732 37.3485 730.495 37.1591 731.378 37.1591C732.26 37.1591 733.022 37.3485 733.662 37.7273C734.306 38.1023 734.802 38.6288 735.151 39.3068C735.499 39.9811 735.673 40.7689 735.673 41.6705C735.673 42.5644 735.499 43.3504 735.151 44.0284C734.802 44.7027 734.306 45.2292 733.662 45.608C733.022 45.983 732.26 46.1705 731.378 46.1705ZM731.389 44.2955C731.791 44.2955 732.126 44.1818 732.395 43.9545C732.664 43.7235 732.866 43.4091 733.003 43.0114C733.143 42.6136 733.213 42.161 733.213 41.6534C733.213 41.1458 733.143 40.6932 733.003 40.2955C732.866 39.8977 732.664 39.5833 732.395 39.3523C732.126 39.1212 731.791 39.0057 731.389 39.0057C730.984 39.0057 730.643 39.1212 730.366 39.3523C730.094 39.5833 729.887 39.8977 729.747 40.2955C729.611 40.6932 729.543 41.1458 729.543 41.6534C729.543 42.161 729.611 42.6136 729.747 43.0114C729.887 43.4091 730.094 43.7235 730.366 43.9545C730.643 44.1818 730.984 44.2955 731.389 44.2955ZM739.668 40.9545V46H737.247V37.2727H739.554V38.8125H739.656C739.849 38.3049 740.173 37.9034 740.628 37.608C741.082 37.3087 741.634 37.1591 742.281 37.1591C742.887 37.1591 743.416 37.2917 743.866 37.5568C744.317 37.822 744.668 38.2008 744.918 38.6932C745.168 39.1818 745.293 39.7652 745.293 40.4432V46H742.872V40.875C742.876 40.3409 742.74 39.9242 742.463 39.625C742.187 39.322 741.806 39.1705 741.321 39.1705C740.995 39.1705 740.707 39.2405 740.457 39.3807C740.211 39.5208 740.018 39.7254 739.878 39.9943C739.741 40.2595 739.671 40.5795 739.668 40.9545ZM751.178 46.1705C750.28 46.1705 749.507 45.9886 748.859 45.625C748.215 45.2576 747.719 44.7386 747.371 44.0682C747.022 43.3939 746.848 42.5966 746.848 41.6761C746.848 40.7784 747.022 39.9905 747.371 39.3125C747.719 38.6345 748.21 38.1061 748.842 37.7273C749.479 37.3485 750.225 37.1591 751.081 37.1591C751.657 37.1591 752.193 37.2519 752.689 37.4375C753.189 37.6193 753.625 37.8939 753.996 38.2614C754.371 38.6288 754.662 39.0909 754.871 39.6477C755.079 40.2008 755.183 40.8485 755.183 41.5909V42.2557H747.814V40.7557H752.905C752.905 40.4072 752.829 40.0985 752.678 39.8295C752.526 39.5606 752.316 39.3504 752.047 39.1989C751.782 39.0436 751.473 38.9659 751.121 38.9659C750.753 38.9659 750.428 39.0511 750.143 39.2216C749.863 39.3883 749.643 39.6136 749.484 39.8977C749.325 40.178 749.244 40.4905 749.24 40.8352V42.2614C749.24 42.6932 749.32 43.0663 749.479 43.3807C749.642 43.6951 749.871 43.9375 750.166 44.108C750.462 44.2784 750.812 44.3636 751.217 44.3636C751.486 44.3636 751.732 44.3258 751.956 44.25C752.179 44.1742 752.371 44.0606 752.53 43.9091C752.689 43.7576 752.81 43.572 752.893 43.3523L755.132 43.5C755.018 44.0379 754.786 44.5076 754.433 44.9091C754.085 45.3068 753.634 45.6174 753.081 45.8409C752.532 46.0606 751.897 46.1705 751.178 46.1705Z" fill="#2F6DFE"/>
<path d="M791.472 34.3636V46H789.011V34.3636H791.472ZM798.092 37.2727V39.0909H792.837V37.2727H798.092ZM794.03 35.1818H796.45V43.3182C796.45 43.5417 796.484 43.7159 796.553 43.8409C796.621 43.9621 796.715 44.0473 796.837 44.0966C796.962 44.1458 797.106 44.1705 797.268 44.1705C797.382 44.1705 797.496 44.161 797.609 44.142C797.723 44.1193 797.81 44.1023 797.871 44.0909L798.251 45.892C798.13 45.9299 797.96 45.9735 797.74 46.0227C797.52 46.0758 797.253 46.108 796.939 46.1193C796.356 46.142 795.844 46.0644 795.405 45.8864C794.969 45.7083 794.63 45.4318 794.388 45.0568C794.145 44.6818 794.026 44.2083 794.03 43.6364V35.1818ZM803.553 46.1705C802.655 46.1705 801.882 45.9886 801.234 45.625C800.59 45.2576 800.094 44.7386 799.746 44.0682C799.397 43.3939 799.223 42.5966 799.223 41.6761C799.223 40.7784 799.397 39.9905 799.746 39.3125C800.094 38.6345 800.585 38.1061 801.217 37.7273C801.854 37.3485 802.6 37.1591 803.456 37.1591C804.032 37.1591 804.568 37.2519 805.064 37.4375C805.564 37.6193 806 37.8939 806.371 38.2614C806.746 38.6288 807.037 39.0909 807.246 39.6477C807.454 40.2008 807.558 40.8485 807.558 41.5909V42.2557H800.189V40.7557H805.28C805.28 40.4072 805.204 40.0985 805.053 39.8295C804.901 39.5606 804.691 39.3504 804.422 39.1989C804.157 39.0436 803.848 38.9659 803.496 38.9659C803.128 38.9659 802.803 39.0511 802.518 39.2216C802.238 39.3883 802.018 39.6136 801.859 39.8977C801.7 40.178 801.619 40.4905 801.615 40.8352V42.2614C801.615 42.6932 801.695 43.0663 801.854 43.3807C802.017 43.6951 802.246 43.9375 802.541 44.108C802.837 44.2784 803.187 44.3636 803.592 44.3636C803.861 44.3636 804.107 44.3258 804.331 44.25C804.554 44.1742 804.746 44.0606 804.905 43.9091C805.064 43.7576 805.185 43.572 805.268 43.3523L807.507 43.5C807.393 44.0379 807.161 44.5076 806.808 44.9091C806.46 45.3068 806.009 45.6174 805.456 45.8409C804.907 46.0606 804.272 46.1705 803.553 46.1705ZM809.138 46V37.2727H811.445V38.8125H811.547C811.729 38.3011 812.032 37.8977 812.456 37.6023C812.88 37.3068 813.388 37.1591 813.979 37.1591C814.577 37.1591 815.087 37.3087 815.507 37.608C815.928 37.9034 816.208 38.3049 816.348 38.8125H816.439C816.617 38.3125 816.939 37.9129 817.405 37.6136C817.875 37.3106 818.429 37.1591 819.07 37.1591C819.884 37.1591 820.545 37.4186 821.053 37.9375C821.564 38.4527 821.82 39.1837 821.82 40.1307V46H819.405V40.608C819.405 40.1231 819.276 39.7595 819.018 39.517C818.761 39.2746 818.439 39.1534 818.053 39.1534C817.613 39.1534 817.27 39.2936 817.024 39.5739C816.778 39.8504 816.655 40.2159 816.655 40.6705V46H814.308V40.5568C814.308 40.1288 814.185 39.7879 813.939 39.5341C813.696 39.2803 813.376 39.1534 812.979 39.1534C812.71 39.1534 812.467 39.2216 812.251 39.358C812.039 39.4905 811.871 39.678 811.746 39.9205C811.621 40.1591 811.558 40.4394 811.558 40.7614V46H809.138ZM832.077 37.2727V39.0909H826.821V37.2727H832.077ZM828.014 35.1818H830.435V43.3182C830.435 43.5417 830.469 43.7159 830.537 43.8409C830.605 43.9621 830.7 44.0473 830.821 44.0966C830.946 44.1458 831.09 44.1705 831.253 44.1705C831.366 44.1705 831.48 44.161 831.594 44.142C831.707 44.1193 831.795 44.1023 831.855 44.0909L832.236 45.892C832.115 45.9299 831.944 45.9735 831.724 46.0227C831.505 46.0758 831.238 46.108 830.923 46.1193C830.34 46.142 829.829 46.0644 829.389 45.8864C828.954 45.7083 828.615 45.4318 828.372 45.0568C828.13 44.6818 828.01 44.2083 828.014 43.6364V35.1818ZM835.375 46L833 37.2727H835.449L836.801 43.1364H836.881L838.29 37.2727H840.693L842.125 43.1023H842.199L843.528 37.2727H845.972L843.602 46H841.04L839.54 40.5114H839.432L837.932 46H835.375ZM850.987 46.1705C850.105 46.1705 849.341 45.983 848.697 45.608C848.057 45.2292 847.563 44.7027 847.214 44.0284C846.866 43.3504 846.692 42.5644 846.692 41.6705C846.692 40.7689 846.866 39.9811 847.214 39.3068C847.563 38.6288 848.057 38.1023 848.697 37.7273C849.341 37.3485 850.105 37.1591 850.987 37.1591C851.87 37.1591 852.631 37.3485 853.271 37.7273C853.915 38.1023 854.411 38.6288 854.76 39.3068C855.108 39.9811 855.283 40.7689 855.283 41.6705C855.283 42.5644 855.108 43.3504 854.76 44.0284C854.411 44.7027 853.915 45.2292 853.271 45.608C852.631 45.983 851.87 46.1705 850.987 46.1705ZM850.999 44.2955C851.4 44.2955 851.735 44.1818 852.004 43.9545C852.273 43.7235 852.476 43.4091 852.612 43.0114C852.752 42.6136 852.822 42.161 852.822 41.6534C852.822 41.1458 852.752 40.6932 852.612 40.2955C852.476 39.8977 852.273 39.5833 852.004 39.3523C851.735 39.1212 851.4 39.0057 850.999 39.0057C850.593 39.0057 850.252 39.1212 849.976 39.3523C849.703 39.5833 849.497 39.8977 849.357 40.2955C849.22 40.6932 849.152 41.1458 849.152 41.6534C849.152 42.161 849.22 42.6136 849.357 43.0114C849.497 43.4091 849.703 43.7235 849.976 43.9545C850.252 44.1818 850.593 44.2955 850.999 44.2955Z" fill="#5D5D5D"/>
<path d="M891.472 34.3636V46H889.011V34.3636H891.472ZM898.092 37.2727V39.0909H892.837V37.2727H898.092ZM894.03 35.1818H896.45V43.3182C896.45 43.5417 896.484 43.7159 896.553 43.8409C896.621 43.9621 896.715 44.0473 896.837 44.0966C896.962 44.1458 897.106 44.1705 897.268 44.1705C897.382 44.1705 897.496 44.161 897.609 44.142C897.723 44.1193 897.81 44.1023 897.871 44.0909L898.251 45.892C898.13 45.9299 897.96 45.9735 897.74 46.0227C897.52 46.0758 897.253 46.108 896.939 46.1193C896.356 46.142 895.844 46.0644 895.405 45.8864C894.969 45.7083 894.63 45.4318 894.388 45.0568C894.145 44.6818 894.026 44.2083 894.03 43.6364V35.1818ZM903.553 46.1705C902.655 46.1705 901.882 45.9886 901.234 45.625C900.59 45.2576 900.094 44.7386 899.746 44.0682C899.397 43.3939 899.223 42.5966 899.223 41.6761C899.223 40.7784 899.397 39.9905 899.746 39.3125C900.094 38.6345 900.585 38.1061 901.217 37.7273C901.854 37.3485 902.6 37.1591 903.456 37.1591C904.032 37.1591 904.568 37.2519 905.064 37.4375C905.564 37.6193 906 37.8939 906.371 38.2614C906.746 38.6288 907.037 39.0909 907.246 39.6477C907.454 40.2008 907.558 40.8485 907.558 41.5909V42.2557H900.189V40.7557H905.28C905.28 40.4072 905.204 40.0985 905.053 39.8295C904.901 39.5606 904.691 39.3504 904.422 39.1989C904.157 39.0436 903.848 38.9659 903.496 38.9659C903.128 38.9659 902.803 39.0511 902.518 39.2216C902.238 39.3883 902.018 39.6136 901.859 39.8977C901.7 40.178 901.619 40.4905 901.615 40.8352V42.2614C901.615 42.6932 901.695 43.0663 901.854 43.3807C902.017 43.6951 902.246 43.9375 902.541 44.108C902.837 44.2784 903.187 44.3636 903.592 44.3636C903.861 44.3636 904.107 44.3258 904.331 44.25C904.554 44.1742 904.746 44.0606 904.905 43.9091C905.064 43.7576 905.185 43.572 905.268 43.3523L907.507 43.5C907.393 44.0379 907.161 44.5076 906.808 44.9091C906.46 45.3068 906.009 45.6174 905.456 45.8409C904.907 46.0606 904.272 46.1705 903.553 46.1705ZM909.138 46V37.2727H911.445V38.8125H911.547C911.729 38.3011 912.032 37.8977 912.456 37.6023C912.88 37.3068 913.388 37.1591 913.979 37.1591C914.577 37.1591 915.087 37.3087 915.507 37.608C915.928 37.9034 916.208 38.3049 916.348 38.8125H916.439C916.617 38.3125 916.939 37.9129 917.405 37.6136C917.875 37.3106 918.429 37.1591 919.07 37.1591C919.884 37.1591 920.545 37.4186 921.053 37.9375C921.564 38.4527 921.82 39.1837 921.82 40.1307V46H919.405V40.608C919.405 40.1231 919.276 39.7595 919.018 39.517C918.761 39.2746 918.439 39.1534 918.053 39.1534C917.613 39.1534 917.27 39.2936 917.024 39.5739C916.778 39.8504 916.655 40.2159 916.655 40.6705V46H914.308V40.5568C914.308 40.1288 914.185 39.7879 913.939 39.5341C913.696 39.2803 913.376 39.1534 912.979 39.1534C912.71 39.1534 912.467 39.2216 912.251 39.358C912.039 39.4905 911.871 39.678 911.746 39.9205C911.621 40.1591 911.558 40.4394 911.558 40.7614V46H909.138ZM932.077 37.2727V39.0909H926.821V37.2727H932.077ZM928.014 35.1818H930.435V43.3182C930.435 43.5417 930.469 43.7159 930.537 43.8409C930.605 43.9621 930.7 44.0473 930.821 44.0966C930.946 44.1458 931.09 44.1705 931.253 44.1705C931.366 44.1705 931.48 44.161 931.594 44.142C931.707 44.1193 931.795 44.1023 931.855 44.0909L932.236 45.892C932.115 45.9299 931.944 45.9735 931.724 46.0227C931.505 46.0758 931.238 46.108 930.923 46.1193C930.34 46.142 929.829 46.0644 929.389 45.8864C928.954 45.7083 928.615 45.4318 928.372 45.0568C928.13 44.6818 928.01 44.2083 928.014 43.6364V35.1818ZM936.261 40.9545V46H933.841V34.3636H936.193V38.8125H936.295C936.492 38.2973 936.811 37.8939 937.25 37.6023C937.689 37.3068 938.241 37.1591 938.903 37.1591C939.509 37.1591 940.038 37.2917 940.489 37.5568C940.943 37.8182 941.295 38.1951 941.545 38.6875C941.799 39.1761 941.924 39.7614 941.92 40.4432V46H939.5V40.875C939.504 40.3371 939.367 39.9186 939.091 39.6193C938.818 39.3201 938.436 39.1705 937.943 39.1705C937.614 39.1705 937.322 39.2405 937.068 39.3807C936.818 39.5208 936.621 39.7254 936.477 39.9943C936.337 40.2595 936.265 40.5795 936.261 40.9545ZM943.825 46V37.2727H946.172V38.7955H946.263C946.422 38.2538 946.689 37.8447 947.064 37.5682C947.439 37.2879 947.871 37.1477 948.359 37.1477C948.481 37.1477 948.611 37.1553 948.751 37.1705C948.892 37.1856 949.015 37.2064 949.121 37.233V39.3807C949.007 39.3466 948.85 39.3163 948.649 39.2898C948.448 39.2633 948.265 39.25 948.098 39.25C947.742 39.25 947.424 39.3277 947.143 39.483C946.867 39.6345 946.647 39.8466 946.484 40.1193C946.325 40.392 946.246 40.7064 946.246 41.0625V46H943.825ZM953.943 46.1705C953.045 46.1705 952.273 45.9886 951.625 45.625C950.981 45.2576 950.485 44.7386 950.136 44.0682C949.788 43.3939 949.614 42.5966 949.614 41.6761C949.614 40.7784 949.788 39.9905 950.136 39.3125C950.485 38.6345 950.975 38.1061 951.608 37.7273C952.244 37.3485 952.991 37.1591 953.847 37.1591C954.422 37.1591 954.958 37.2519 955.455 37.4375C955.955 37.6193 956.39 37.8939 956.761 38.2614C957.136 38.6288 957.428 39.0909 957.636 39.6477C957.845 40.2008 957.949 40.8485 957.949 41.5909V42.2557H950.58V40.7557H955.67C955.67 40.4072 955.595 40.0985 955.443 39.8295C955.292 39.5606 955.081 39.3504 954.812 39.1989C954.547 39.0436 954.239 38.9659 953.886 38.9659C953.519 38.9659 953.193 39.0511 952.909 39.2216C952.629 39.3883 952.409 39.6136 952.25 39.8977C952.091 40.178 952.009 40.4905 952.006 40.8352V42.2614C952.006 42.6932 952.085 43.0663 952.244 43.3807C952.407 43.6951 952.636 43.9375 952.932 44.108C953.227 44.2784 953.578 44.3636 953.983 44.3636C954.252 44.3636 954.498 44.3258 954.722 44.25C954.945 44.1742 955.136 44.0606 955.295 43.9091C955.455 43.7576 955.576 43.572 955.659 43.3523L957.898 43.5C957.784 44.0379 957.551 44.5076 957.199 44.9091C956.85 45.3068 956.4 45.6174 955.847 45.8409C955.297 46.0606 954.663 46.1705 953.943 46.1705ZM963.506 46.1705C962.608 46.1705 961.835 45.9886 961.188 45.625C960.544 45.2576 960.047 44.7386 959.699 44.0682C959.35 43.3939 959.176 42.5966 959.176 41.6761C959.176 40.7784 959.35 39.9905 959.699 39.3125C960.047 38.6345 960.538 38.1061 961.17 37.7273C961.807 37.3485 962.553 37.1591 963.409 37.1591C963.985 37.1591 964.521 37.2519 965.017 37.4375C965.517 37.6193 965.953 37.8939 966.324 38.2614C966.699 38.6288 966.991 39.0909 967.199 39.6477C967.407 40.2008 967.511 40.8485 967.511 41.5909V42.2557H960.142V40.7557H965.233C965.233 40.4072 965.157 40.0985 965.006 39.8295C964.854 39.5606 964.644 39.3504 964.375 39.1989C964.11 39.0436 963.801 38.9659 963.449 38.9659C963.081 38.9659 962.756 39.0511 962.472 39.2216C962.191 39.3883 961.972 39.6136 961.812 39.8977C961.653 40.178 961.572 40.4905 961.568 40.8352V42.2614C961.568 42.6932 961.648 43.0663 961.807 43.3807C961.97 43.6951 962.199 43.9375 962.494 44.108C962.79 44.2784 963.14 44.3636 963.545 44.3636C963.814 44.3636 964.061 44.3258 964.284 44.25C964.508 44.1742 964.699 44.0606 964.858 43.9091C965.017 43.7576 965.138 43.572 965.222 43.3523L967.46 43.5C967.347 44.0379 967.114 44.5076 966.761 44.9091C966.413 45.3068 965.962 45.6174 965.409 45.8409C964.86 46.0606 964.225 46.1705 963.506 46.1705Z" fill="#5D5D5D"/>
<path d="M1004.47 34.3636V46H1002.01V34.3636H1004.47ZM1011.09 37.2727V39.0909H1005.84V37.2727H1011.09ZM1007.03 35.1818H1009.45V43.3182C1009.45 43.5417 1009.48 43.7159 1009.55 43.8409C1009.62 43.9621 1009.72 44.0473 1009.84 44.0966C1009.96 44.1458 1010.11 44.1705 1010.27 44.1705C1010.38 44.1705 1010.5 44.161 1010.61 44.142C1010.72 44.1193 1010.81 44.1023 1010.87 44.0909L1011.25 45.892C1011.13 45.9299 1010.96 45.9735 1010.74 46.0227C1010.52 46.0758 1010.25 46.108 1009.94 46.1193C1009.36 46.142 1008.84 46.0644 1008.4 45.8864C1007.97 45.7083 1007.63 45.4318 1007.39 45.0568C1007.15 44.6818 1007.03 44.2083 1007.03 43.6364V35.1818ZM1016.55 46.1705C1015.65 46.1705 1014.88 45.9886 1014.23 45.625C1013.59 45.2576 1013.09 44.7386 1012.75 44.0682C1012.4 43.3939 1012.22 42.5966 1012.22 41.6761C1012.22 40.7784 1012.4 39.9905 1012.75 39.3125C1013.09 38.6345 1013.58 38.1061 1014.22 37.7273C1014.85 37.3485 1015.6 37.1591 1016.46 37.1591C1017.03 37.1591 1017.57 37.2519 1018.06 37.4375C1018.56 37.6193 1019 37.8939 1019.37 38.2614C1019.75 38.6288 1020.04 39.0909 1020.25 39.6477C1020.45 40.2008 1020.56 40.8485 1020.56 41.5909V42.2557H1013.19V40.7557H1018.28C1018.28 40.4072 1018.2 40.0985 1018.05 39.8295C1017.9 39.5606 1017.69 39.3504 1017.42 39.1989C1017.16 39.0436 1016.85 38.9659 1016.5 38.9659C1016.13 38.9659 1015.8 39.0511 1015.52 39.2216C1015.24 39.3883 1015.02 39.6136 1014.86 39.8977C1014.7 40.178 1014.62 40.4905 1014.62 40.8352V42.2614C1014.62 42.6932 1014.69 43.0663 1014.85 43.3807C1015.02 43.6951 1015.25 43.9375 1015.54 44.108C1015.84 44.2784 1016.19 44.3636 1016.59 44.3636C1016.86 44.3636 1017.11 44.3258 1017.33 44.25C1017.55 44.1742 1017.75 44.0606 1017.9 43.9091C1018.06 43.7576 1018.19 43.572 1018.27 43.3523L1020.51 43.5C1020.39 44.0379 1020.16 44.5076 1019.81 44.9091C1019.46 45.3068 1019.01 45.6174 1018.46 45.8409C1017.91 46.0606 1017.27 46.1705 1016.55 46.1705ZM1022.14 46V37.2727H1024.44V38.8125H1024.55C1024.73 38.3011 1025.03 37.8977 1025.46 37.6023C1025.88 37.3068 1026.39 37.1591 1026.98 37.1591C1027.58 37.1591 1028.09 37.3087 1028.51 37.608C1028.93 37.9034 1029.21 38.3049 1029.35 38.8125H1029.44C1029.62 38.3125 1029.94 37.9129 1030.4 37.6136C1030.87 37.3106 1031.43 37.1591 1032.07 37.1591C1032.88 37.1591 1033.54 37.4186 1034.05 37.9375C1034.56 38.4527 1034.82 39.1837 1034.82 40.1307V46H1032.4V40.608C1032.4 40.1231 1032.28 39.7595 1032.02 39.517C1031.76 39.2746 1031.44 39.1534 1031.05 39.1534C1030.61 39.1534 1030.27 39.2936 1030.02 39.5739C1029.78 39.8504 1029.65 40.2159 1029.65 40.6705V46H1027.31V40.5568C1027.31 40.1288 1027.19 39.7879 1026.94 39.5341C1026.7 39.2803 1026.38 39.1534 1025.98 39.1534C1025.71 39.1534 1025.47 39.2216 1025.25 39.358C1025.04 39.4905 1024.87 39.678 1024.75 39.9205C1024.62 40.1591 1024.56 40.4394 1024.56 40.7614V46H1022.14ZM1045.13 37.2727V39.0909H1039.74V37.2727H1045.13ZM1040.97 46V36.642C1040.97 36.0095 1041.1 35.4848 1041.34 35.0682C1041.59 34.6515 1041.93 34.339 1042.37 34.1307C1042.8 33.9223 1043.29 33.8182 1043.84 33.8182C1044.21 33.8182 1044.55 33.8466 1044.86 33.9034C1045.17 33.9602 1045.4 34.0114 1045.55 34.0568L1045.12 35.875C1045.02 35.8447 1044.9 35.8163 1044.76 35.7898C1044.63 35.7633 1044.49 35.75 1044.34 35.75C1043.99 35.75 1043.74 35.8333 1043.6 36C1043.46 36.1629 1043.39 36.392 1043.39 36.6875V46H1040.97ZM1050.24 46.1705C1049.35 46.1705 1048.59 45.983 1047.95 45.608C1047.31 45.2292 1046.81 44.7027 1046.46 44.0284C1046.12 43.3504 1045.94 42.5644 1045.94 41.6705C1045.94 40.7689 1046.12 39.9811 1046.46 39.3068C1046.81 38.6288 1047.31 38.1023 1047.95 37.7273C1048.59 37.3485 1049.35 37.1591 1050.24 37.1591C1051.12 37.1591 1051.88 37.3485 1052.52 37.7273C1053.17 38.1023 1053.66 38.6288 1054.01 39.3068C1054.36 39.9811 1054.53 40.7689 1054.53 41.6705C1054.53 42.5644 1054.36 43.3504 1054.01 44.0284C1053.66 44.7027 1053.17 45.2292 1052.52 45.608C1051.88 45.983 1051.12 46.1705 1050.24 46.1705ZM1050.25 44.2955C1050.65 44.2955 1050.99 44.1818 1051.25 43.9545C1051.52 43.7235 1051.73 43.4091 1051.86 43.0114C1052 42.6136 1052.07 42.161 1052.07 41.6534C1052.07 41.1458 1052 40.6932 1051.86 40.2955C1051.73 39.8977 1051.52 39.5833 1051.25 39.3523C1050.99 39.1212 1050.65 39.0057 1050.25 39.0057C1049.84 39.0057 1049.5 39.1212 1049.23 39.3523C1048.95 39.5833 1048.75 39.8977 1048.61 40.2955C1048.47 40.6932 1048.4 41.1458 1048.4 41.6534C1048.4 42.161 1048.47 42.6136 1048.61 43.0114C1048.75 43.4091 1048.95 43.7235 1049.23 43.9545C1049.5 44.1818 1049.84 44.2955 1050.25 44.2955ZM1061.7 42.2841V37.2727H1064.12V46H1061.8V44.4148H1061.71C1061.51 44.9261 1061.18 45.3371 1060.73 45.6477C1060.27 45.9583 1059.72 46.1136 1059.06 46.1136C1058.48 46.1136 1057.96 45.9811 1057.52 45.7159C1057.08 45.4508 1056.73 45.0739 1056.48 44.5852C1056.24 44.0966 1056.11 43.5114 1056.11 42.8295V37.2727H1058.53V42.3977C1058.53 42.9129 1058.67 43.3201 1058.94 43.6193C1059.21 43.9186 1059.58 44.0682 1060.04 44.0682C1060.33 44.0682 1060.6 44.0019 1060.86 43.8693C1061.11 43.733 1061.31 43.5322 1061.47 43.267C1061.63 43.0019 1061.71 42.6742 1061.7 42.2841ZM1066.06 46V37.2727H1068.41V38.7955H1068.5C1068.66 38.2538 1068.92 37.8447 1069.3 37.5682C1069.67 37.2879 1070.11 37.1477 1070.59 37.1477C1070.71 37.1477 1070.85 37.1553 1070.99 37.1705C1071.13 37.1856 1071.25 37.2064 1071.36 37.233V39.3807C1071.24 39.3466 1071.08 39.3163 1070.88 39.2898C1070.68 39.2633 1070.5 39.25 1070.33 39.25C1069.98 39.25 1069.66 39.3277 1069.38 39.483C1069.1 39.6345 1068.88 39.8466 1068.72 40.1193C1068.56 40.392 1068.48 40.7064 1068.48 41.0625V46H1066.06Z" fill="#5D5D5D"/>
<path d="M1177.02 46H1174.38L1178.4 34.3636H1181.57L1185.58 46H1182.94L1180.03 37.0227H1179.94L1177.02 46ZM1176.85 41.4261H1183.08V43.3466H1176.85V41.4261ZM1190.47 46.1705C1189.58 46.1705 1188.81 45.9811 1188.16 45.6023C1187.52 45.2197 1187.03 44.6894 1186.69 44.0114C1186.35 43.3333 1186.18 42.553 1186.18 41.6705C1186.18 40.7765 1186.35 39.9924 1186.69 39.3182C1187.04 38.6402 1187.54 38.1117 1188.18 37.733C1188.82 37.3504 1189.58 37.1591 1190.46 37.1591C1191.22 37.1591 1191.89 37.2973 1192.46 37.5739C1193.03 37.8504 1193.48 38.2386 1193.82 38.7386C1194.15 39.2386 1194.34 39.8258 1194.37 40.5H1192.09C1192.02 40.0644 1191.85 39.714 1191.57 39.4489C1191.3 39.1799 1190.94 39.0455 1190.5 39.0455C1190.12 39.0455 1189.8 39.1477 1189.52 39.3523C1189.24 39.553 1189.02 39.8466 1188.87 40.233C1188.71 40.6193 1188.64 41.0871 1188.64 41.6364C1188.64 42.1932 1188.71 42.6667 1188.86 43.0568C1189.02 43.447 1189.24 43.7443 1189.52 43.9489C1189.8 44.1534 1190.12 44.2557 1190.5 44.2557C1190.78 44.2557 1191.02 44.1989 1191.24 44.0852C1191.47 43.9716 1191.65 43.8068 1191.8 43.5909C1191.94 43.3712 1192.04 43.108 1192.09 42.8011H1194.37C1194.33 43.4678 1194.15 44.0549 1193.82 44.5625C1193.5 45.0663 1193.06 45.4602 1192.49 45.7443C1191.92 46.0284 1191.25 46.1705 1190.47 46.1705ZM1200.56 37.2727V39.0909H1195.31V37.2727H1200.56ZM1196.5 35.1818H1198.92V43.3182C1198.92 43.5417 1198.95 43.7159 1199.02 43.8409C1199.09 43.9621 1199.18 44.0473 1199.31 44.0966C1199.43 44.1458 1199.57 44.1705 1199.74 44.1705C1199.85 44.1705 1199.96 44.161 1200.08 44.142C1200.19 44.1193 1200.28 44.1023 1200.34 44.0909L1200.72 45.892C1200.6 45.9299 1200.43 45.9735 1200.21 46.0227C1199.99 46.0758 1199.72 46.108 1199.41 46.1193C1198.82 46.142 1198.31 46.0644 1197.87 45.8864C1197.44 45.7083 1197.1 45.4318 1196.86 45.0568C1196.61 44.6818 1196.49 44.2083 1196.5 43.6364V35.1818ZM1202.14 46V37.2727H1204.56V46H1202.14ZM1203.35 36.1477C1202.99 36.1477 1202.69 36.0284 1202.43 35.7898C1202.17 35.5473 1202.05 35.2576 1202.05 34.9205C1202.05 34.5871 1202.17 34.3011 1202.43 34.0625C1202.69 33.8201 1202.99 33.6989 1203.35 33.6989C1203.71 33.6989 1204.02 33.8201 1204.27 34.0625C1204.53 34.3011 1204.66 34.5871 1204.66 34.9205C1204.66 35.2576 1204.53 35.5473 1204.27 35.7898C1204.02 36.0284 1203.71 36.1477 1203.35 36.1477ZM1210.44 46.1705C1209.56 46.1705 1208.79 45.983 1208.15 45.608C1207.51 45.2292 1207.02 44.7027 1206.67 44.0284C1206.32 43.3504 1206.14 42.5644 1206.14 41.6705C1206.14 40.7689 1206.32 39.9811 1206.67 39.3068C1207.02 38.6288 1207.51 38.1023 1208.15 37.7273C1208.79 37.3485 1209.56 37.1591 1210.44 37.1591C1211.32 37.1591 1212.08 37.3485 1212.72 37.7273C1213.37 38.1023 1213.86 38.6288 1214.21 39.3068C1214.56 39.9811 1214.74 40.7689 1214.74 41.6705C1214.74 42.5644 1214.56 43.3504 1214.21 44.0284C1213.86 44.7027 1213.37 45.2292 1212.72 45.608C1212.08 45.983 1211.32 46.1705 1210.44 46.1705ZM1210.45 44.2955C1210.85 44.2955 1211.19 44.1818 1211.46 43.9545C1211.73 43.7235 1211.93 43.4091 1212.07 43.0114C1212.21 42.6136 1212.28 42.161 1212.28 41.6534C1212.28 41.1458 1212.21 40.6932 1212.07 40.2955C1211.93 39.8977 1211.73 39.5833 1211.46 39.3523C1211.19 39.1212 1210.85 39.0057 1210.45 39.0057C1210.05 39.0057 1209.71 39.1212 1209.43 39.3523C1209.16 39.5833 1208.95 39.8977 1208.81 40.2955C1208.67 40.6932 1208.61 41.1458 1208.61 41.6534C1208.61 42.161 1208.67 42.6136 1208.81 43.0114C1208.95 43.4091 1209.16 43.7235 1209.43 43.9545C1209.71 44.1818 1210.05 44.2955 1210.45 44.2955ZM1218.73 40.9545V46H1216.31V37.2727H1218.62V38.8125H1218.72C1218.91 38.3049 1219.24 37.9034 1219.69 37.608C1220.14 37.3087 1220.7 37.1591 1221.34 37.1591C1221.95 37.1591 1222.48 37.2917 1222.93 37.5568C1223.38 37.822 1223.73 38.2008 1223.98 38.6932C1224.23 39.1818 1224.36 39.7652 1224.36 40.4432V46H1221.93V40.875C1221.94 40.3409 1221.8 39.9242 1221.53 39.625C1221.25 39.322 1220.87 39.1705 1220.38 39.1705C1220.06 39.1705 1219.77 39.2405 1219.52 39.3807C1219.27 39.5208 1219.08 39.7254 1218.94 39.9943C1218.8 40.2595 1218.73 40.5795 1218.73 40.9545ZM1233.91 46.1705C1233.03 46.1705 1232.26 45.983 1231.62 45.608C1230.98 45.2292 1230.48 44.7027 1230.14 44.0284C1229.79 43.3504 1229.61 42.5644 1229.61 41.6705C1229.61 40.7689 1229.79 39.9811 1230.14 39.3068C1230.48 38.6288 1230.98 38.1023 1231.62 37.7273C1232.26 37.3485 1233.03 37.1591 1233.91 37.1591C1234.79 37.1591 1235.55 37.3485 1236.19 37.7273C1236.84 38.1023 1237.33 38.6288 1237.68 39.3068C1238.03 39.9811 1238.2 40.7689 1238.2 41.6705C1238.2 42.5644 1238.03 43.3504 1237.68 44.0284C1237.33 44.7027 1236.84 45.2292 1236.19 45.608C1235.55 45.983 1234.79 46.1705 1233.91 46.1705ZM1233.92 44.2955C1234.32 44.2955 1234.66 44.1818 1234.93 43.9545C1235.2 43.7235 1235.4 43.4091 1235.53 43.0114C1235.67 42.6136 1235.74 42.161 1235.74 41.6534C1235.74 41.1458 1235.67 40.6932 1235.53 40.2955C1235.4 39.8977 1235.2 39.5833 1234.93 39.3523C1234.66 39.1212 1234.32 39.0057 1233.92 39.0057C1233.52 39.0057 1233.17 39.1212 1232.9 39.3523C1232.63 39.5833 1232.42 39.8977 1232.28 40.2955C1232.14 40.6932 1232.07 41.1458 1232.07 41.6534C1232.07 42.161 1232.14 42.6136 1232.28 43.0114C1232.42 43.4091 1232.63 43.7235 1232.9 43.9545C1233.17 44.1818 1233.52 44.2955 1233.92 44.2955ZM1242.2 40.9545V46H1239.78V37.2727H1242.09V38.8125H1242.19C1242.38 38.3049 1242.7 37.9034 1243.16 37.608C1243.61 37.3087 1244.16 37.1591 1244.81 37.1591C1245.42 37.1591 1245.95 37.2917 1246.4 37.5568C1246.85 37.822 1247.2 38.2008 1247.45 38.6932C1247.7 39.1818 1247.82 39.7652 1247.82 40.4432V46H1245.4V40.875C1245.41 40.3409 1245.27 39.9242 1244.99 39.625C1244.72 39.322 1244.34 39.1705 1243.85 39.1705C1243.53 39.1705 1243.24 39.2405 1242.99 39.3807C1242.74 39.5208 1242.55 39.7254 1242.41 39.9943C1242.27 40.2595 1242.2 40.5795 1242.2 40.9545ZM1253.71 46.1705C1252.81 46.1705 1252.04 45.9886 1251.39 45.625C1250.75 45.2576 1250.25 44.7386 1249.9 44.0682C1249.55 43.3939 1249.38 42.5966 1249.38 41.6761C1249.38 40.7784 1249.55 39.9905 1249.9 39.3125C1250.25 38.6345 1250.74 38.1061 1251.37 37.7273C1252.01 37.3485 1252.76 37.1591 1253.61 37.1591C1254.19 37.1591 1254.72 37.2519 1255.22 37.4375C1255.72 37.6193 1256.16 37.8939 1256.53 38.2614C1256.9 38.6288 1257.19 39.0909 1257.4 39.6477C1257.61 40.2008 1257.71 40.8485 1257.71 41.5909V42.2557H1250.35V40.7557H1255.44C1255.44 40.4072 1255.36 40.0985 1255.21 39.8295C1255.06 39.5606 1254.85 39.3504 1254.58 39.1989C1254.31 39.0436 1254 38.9659 1253.65 38.9659C1253.28 38.9659 1252.96 39.0511 1252.67 39.2216C1252.39 39.3883 1252.17 39.6136 1252.02 39.8977C1251.86 40.178 1251.78 40.4905 1251.77 40.8352V42.2614C1251.77 42.6932 1251.85 43.0663 1252.01 43.3807C1252.17 43.6951 1252.4 43.9375 1252.7 44.108C1252.99 44.2784 1253.34 44.3636 1253.75 44.3636C1254.02 44.3636 1254.26 44.3258 1254.49 44.25C1254.71 44.1742 1254.9 44.0606 1255.06 43.9091C1255.22 43.7576 1255.34 43.572 1255.42 43.3523L1257.66 43.5C1257.55 44.0379 1257.32 44.5076 1256.96 44.9091C1256.62 45.3068 1256.17 45.6174 1255.61 45.8409C1255.06 46.0606 1254.43 46.1705 1253.71 46.1705Z" fill="#5D5D5D"/>
<path d="M1294.02 46H1291.38L1295.4 34.3636H1298.57L1302.58 46H1299.94L1297.03 37.0227H1296.94L1294.02 46ZM1293.85 41.4261H1300.08V43.3466H1293.85V41.4261ZM1307.47 46.1705C1306.58 46.1705 1305.81 45.9811 1305.16 45.6023C1304.52 45.2197 1304.03 44.6894 1303.69 44.0114C1303.35 43.3333 1303.18 42.553 1303.18 41.6705C1303.18 40.7765 1303.35 39.9924 1303.69 39.3182C1304.04 38.6402 1304.54 38.1117 1305.18 37.733C1305.82 37.3504 1306.58 37.1591 1307.46 37.1591C1308.22 37.1591 1308.89 37.2973 1309.46 37.5739C1310.03 37.8504 1310.48 38.2386 1310.82 38.7386C1311.15 39.2386 1311.34 39.8258 1311.37 40.5H1309.09C1309.02 40.0644 1308.85 39.714 1308.57 39.4489C1308.3 39.1799 1307.94 39.0455 1307.5 39.0455C1307.12 39.0455 1306.8 39.1477 1306.52 39.3523C1306.24 39.553 1306.02 39.8466 1305.87 40.233C1305.71 40.6193 1305.64 41.0871 1305.64 41.6364C1305.64 42.1932 1305.71 42.6667 1305.86 43.0568C1306.02 43.447 1306.24 43.7443 1306.52 43.9489C1306.8 44.1534 1307.12 44.2557 1307.5 44.2557C1307.78 44.2557 1308.02 44.1989 1308.24 44.0852C1308.47 43.9716 1308.65 43.8068 1308.8 43.5909C1308.94 43.3712 1309.04 43.108 1309.09 42.8011H1311.37C1311.33 43.4678 1311.15 44.0549 1310.82 44.5625C1310.5 45.0663 1310.06 45.4602 1309.49 45.7443C1308.92 46.0284 1308.25 46.1705 1307.47 46.1705ZM1317.56 37.2727V39.0909H1312.31V37.2727H1317.56ZM1313.5 35.1818H1315.92V43.3182C1315.92 43.5417 1315.95 43.7159 1316.02 43.8409C1316.09 43.9621 1316.18 44.0473 1316.31 44.0966C1316.43 44.1458 1316.57 44.1705 1316.74 44.1705C1316.85 44.1705 1316.96 44.161 1317.08 44.142C1317.19 44.1193 1317.28 44.1023 1317.34 44.0909L1317.72 45.892C1317.6 45.9299 1317.43 45.9735 1317.21 46.0227C1316.99 46.0758 1316.72 46.108 1316.41 46.1193C1315.82 46.142 1315.31 46.0644 1314.87 45.8864C1314.44 45.7083 1314.1 45.4318 1313.86 45.0568C1313.61 44.6818 1313.49 44.2083 1313.5 43.6364V35.1818ZM1319.14 46V37.2727H1321.56V46H1319.14ZM1320.35 36.1477C1319.99 36.1477 1319.69 36.0284 1319.43 35.7898C1319.17 35.5473 1319.05 35.2576 1319.05 34.9205C1319.05 34.5871 1319.17 34.3011 1319.43 34.0625C1319.69 33.8201 1319.99 33.6989 1320.35 33.6989C1320.71 33.6989 1321.02 33.8201 1321.27 34.0625C1321.53 34.3011 1321.66 34.5871 1321.66 34.9205C1321.66 35.2576 1321.53 35.5473 1321.27 35.7898C1321.02 36.0284 1320.71 36.1477 1320.35 36.1477ZM1327.44 46.1705C1326.56 46.1705 1325.79 45.983 1325.15 45.608C1324.51 45.2292 1324.02 44.7027 1323.67 44.0284C1323.32 43.3504 1323.14 42.5644 1323.14 41.6705C1323.14 40.7689 1323.32 39.9811 1323.67 39.3068C1324.02 38.6288 1324.51 38.1023 1325.15 37.7273C1325.79 37.3485 1326.56 37.1591 1327.44 37.1591C1328.32 37.1591 1329.08 37.3485 1329.72 37.7273C1330.37 38.1023 1330.86 38.6288 1331.21 39.3068C1331.56 39.9811 1331.74 40.7689 1331.74 41.6705C1331.74 42.5644 1331.56 43.3504 1331.21 44.0284C1330.86 44.7027 1330.37 45.2292 1329.72 45.608C1329.08 45.983 1328.32 46.1705 1327.44 46.1705ZM1327.45 44.2955C1327.85 44.2955 1328.19 44.1818 1328.46 43.9545C1328.73 43.7235 1328.93 43.4091 1329.07 43.0114C1329.21 42.6136 1329.28 42.161 1329.28 41.6534C1329.28 41.1458 1329.21 40.6932 1329.07 40.2955C1328.93 39.8977 1328.73 39.5833 1328.46 39.3523C1328.19 39.1212 1327.85 39.0057 1327.45 39.0057C1327.05 39.0057 1326.71 39.1212 1326.43 39.3523C1326.16 39.5833 1325.95 39.8977 1325.81 40.2955C1325.67 40.6932 1325.61 41.1458 1325.61 41.6534C1325.61 42.161 1325.67 42.6136 1325.81 43.0114C1325.95 43.4091 1326.16 43.7235 1326.43 43.9545C1326.71 44.1818 1327.05 44.2955 1327.45 44.2955ZM1335.73 40.9545V46H1333.31V37.2727H1335.62V38.8125H1335.72C1335.91 38.3049 1336.24 37.9034 1336.69 37.608C1337.14 37.3087 1337.7 37.1591 1338.34 37.1591C1338.95 37.1591 1339.48 37.2917 1339.93 37.5568C1340.38 37.822 1340.73 38.2008 1340.98 38.6932C1341.23 39.1818 1341.36 39.7652 1341.36 40.4432V46H1338.93V40.875C1338.94 40.3409 1338.8 39.9242 1338.53 39.625C1338.25 39.322 1337.87 39.1705 1337.38 39.1705C1337.06 39.1705 1336.77 39.2405 1336.52 39.3807C1336.27 39.5208 1336.08 39.7254 1335.94 39.9943C1335.8 40.2595 1335.73 40.5795 1335.73 40.9545ZM1351.61 37.2727V39.0909H1346.35V37.2727H1351.61ZM1347.55 35.1818H1349.97V43.3182C1349.97 43.5417 1350 43.7159 1350.07 43.8409C1350.14 43.9621 1350.23 44.0473 1350.35 44.0966C1350.48 44.1458 1350.62 44.1705 1350.78 44.1705C1350.9 44.1705 1351.01 44.161 1351.12 44.142C1351.24 44.1193 1351.33 44.1023 1351.39 44.0909L1351.77 45.892C1351.65 45.9299 1351.48 45.9735 1351.26 46.0227C1351.04 46.0758 1350.77 46.108 1350.45 46.1193C1349.87 46.142 1349.36 46.0644 1348.92 45.8864C1348.48 45.7083 1348.15 45.4318 1347.9 45.0568C1347.66 44.6818 1347.54 44.2083 1347.55 43.6364V35.1818ZM1354.91 46L1352.53 37.2727H1354.98L1356.33 43.1364H1356.41L1357.82 37.2727H1360.22L1361.66 43.1023H1361.73L1363.06 37.2727H1365.5L1363.13 46H1360.57L1359.07 40.5114H1358.96L1357.46 46H1354.91ZM1370.52 46.1705C1369.64 46.1705 1368.87 45.983 1368.23 45.608C1367.59 45.2292 1367.09 44.7027 1366.75 44.0284C1366.4 43.3504 1366.22 42.5644 1366.22 41.6705C1366.22 40.7689 1366.4 39.9811 1366.75 39.3068C1367.09 38.6288 1367.59 38.1023 1368.23 37.7273C1368.87 37.3485 1369.64 37.1591 1370.52 37.1591C1371.4 37.1591 1372.16 37.3485 1372.8 37.7273C1373.45 38.1023 1373.94 38.6288 1374.29 39.3068C1374.64 39.9811 1374.81 40.7689 1374.81 41.6705C1374.81 42.5644 1374.64 43.3504 1374.29 44.0284C1373.94 44.7027 1373.45 45.2292 1372.8 45.608C1372.16 45.983 1371.4 46.1705 1370.52 46.1705ZM1370.53 44.2955C1370.93 44.2955 1371.27 44.1818 1371.54 43.9545C1371.8 43.7235 1372.01 43.4091 1372.14 43.0114C1372.28 42.6136 1372.35 42.161 1372.35 41.6534C1372.35 41.1458 1372.28 40.6932 1372.14 40.2955C1372.01 39.8977 1371.8 39.5833 1371.54 39.3523C1371.27 39.1212 1370.93 39.0057 1370.53 39.0057C1370.12 39.0057 1369.78 39.1212 1369.51 39.3523C1369.23 39.5833 1369.03 39.8977 1368.89 40.2955C1368.75 40.6932 1368.68 41.1458 1368.68 41.6534C1368.68 42.161 1368.75 42.6136 1368.89 43.0114C1369.03 43.4091 1369.23 43.7235 1369.51 43.9545C1369.78 44.1818 1370.12 44.2955 1370.53 44.2955Z" fill="#5D5D5D"/>
<path d="M1124.14 30.6136V49.75H1121.84V30.6136H1124.14Z" fill="#5D5D5D"/>
</svg>
