<svg width="1440" height="640" viewBox="0 0 1440 640" fill="none" xmlns="http://www.w3.org/2000/svg">
<rect width="1440" height="640" fill="#D9D9D9"/>
<path d="M0 0H1440V130C1440 138.837 1432.84 146 1424 146H16C7.16349 146 0 138.837 0 130V0Z" fill="white"/>
<path d="M676.023 63V39.7273H680.943V58.9432H690.92V63H676.023ZM714.659 51.3636C714.659 53.9015 714.178 56.0606 713.216 57.8409C712.261 59.6212 710.958 60.9811 709.307 61.9205C707.663 62.8523 705.814 63.3182 703.761 63.3182C701.693 63.3182 699.837 62.8485 698.193 61.9091C696.549 60.9697 695.25 59.6098 694.295 57.8295C693.341 56.0492 692.864 53.8939 692.864 51.3636C692.864 48.8258 693.341 46.6667 694.295 44.8864C695.25 43.1061 696.549 41.75 698.193 40.8182C699.837 39.8788 701.693 39.4091 703.761 39.4091C705.814 39.4091 707.663 39.8788 709.307 40.8182C710.958 41.75 712.261 43.1061 713.216 44.8864C714.178 46.6667 714.659 48.8258 714.659 51.3636ZM709.67 51.3636C709.67 49.7197 709.424 48.3333 708.932 47.2045C708.447 46.0758 707.761 45.2197 706.875 44.6364C705.989 44.053 704.951 43.7614 703.761 43.7614C702.572 43.7614 701.534 44.053 700.648 44.6364C699.761 45.2197 699.072 46.0758 698.58 47.2045C698.095 48.3333 697.852 49.7197 697.852 51.3636C697.852 53.0076 698.095 54.3939 698.58 55.5227C699.072 56.6515 699.761 57.5076 700.648 58.0909C701.534 58.6742 702.572 58.9659 703.761 58.9659C704.951 58.9659 705.989 58.6742 706.875 58.0909C707.761 57.5076 708.447 56.6515 708.932 55.5227C709.424 54.3939 709.67 53.0076 709.67 51.3636ZM733.736 47.25C733.577 46.697 733.353 46.2083 733.065 45.7841C732.777 45.3523 732.425 44.9886 732.009 44.6932C731.599 44.3902 731.13 44.1591 730.599 44C730.077 43.8409 729.497 43.7614 728.861 43.7614C727.671 43.7614 726.626 44.0568 725.724 44.6477C724.83 45.2386 724.134 46.0985 723.634 47.2273C723.134 48.3485 722.884 49.7197 722.884 51.3409C722.884 52.9621 723.13 54.3409 723.622 55.4773C724.115 56.6136 724.812 57.4811 725.713 58.0795C726.615 58.6705 727.679 58.9659 728.906 58.9659C730.02 58.9659 730.971 58.7689 731.759 58.375C732.554 57.9735 733.16 57.4091 733.577 56.6818C734.001 55.9545 734.213 55.0947 734.213 54.1023L735.213 54.25H729.213V50.5455H738.952V53.4773C738.952 55.5227 738.52 57.2803 737.656 58.75C736.793 60.2121 735.603 61.3409 734.088 62.1364C732.573 62.9242 730.838 63.3182 728.884 63.3182C726.702 63.3182 724.785 62.8371 723.134 61.875C721.482 60.9053 720.194 59.5303 719.27 57.75C718.353 55.9621 717.895 53.8409 717.895 51.3864C717.895 49.5 718.168 47.8182 718.713 46.3409C719.266 44.8561 720.039 43.5985 721.031 42.5682C722.024 41.5379 723.179 40.7538 724.497 40.2159C725.815 39.678 727.243 39.4091 728.781 39.4091C730.099 39.4091 731.327 39.6023 732.463 39.9886C733.599 40.3674 734.607 40.9053 735.486 41.6023C736.372 42.2992 737.096 43.1288 737.656 44.0909C738.217 45.0455 738.577 46.0985 738.736 47.25H733.736ZM764.034 51.3636C764.034 53.9015 763.553 56.0606 762.591 57.8409C761.636 59.6212 760.333 60.9811 758.682 61.9205C757.038 62.8523 755.189 63.3182 753.136 63.3182C751.068 63.3182 749.212 62.8485 747.568 61.9091C745.924 60.9697 744.625 59.6098 743.67 57.8295C742.716 56.0492 742.239 53.8939 742.239 51.3636C742.239 48.8258 742.716 46.6667 743.67 44.8864C744.625 43.1061 745.924 41.75 747.568 40.8182C749.212 39.8788 751.068 39.4091 753.136 39.4091C755.189 39.4091 757.038 39.8788 758.682 40.8182C760.333 41.75 761.636 43.1061 762.591 44.8864C763.553 46.6667 764.034 48.8258 764.034 51.3636ZM759.045 51.3636C759.045 49.7197 758.799 48.3333 758.307 47.2045C757.822 46.0758 757.136 45.2197 756.25 44.6364C755.364 44.053 754.326 43.7614 753.136 43.7614C751.947 43.7614 750.909 44.053 750.023 44.6364C749.136 45.2197 748.447 46.0758 747.955 47.2045C747.47 48.3333 747.227 49.7197 747.227 51.3636C747.227 53.0076 747.47 54.3939 747.955 55.5227C748.447 56.6515 749.136 57.5076 750.023 58.0909C750.909 58.6742 751.947 58.9659 753.136 58.9659C754.326 58.9659 755.364 58.6742 756.25 58.0909C757.136 57.5076 757.822 56.6515 758.307 55.5227C758.799 54.3939 759.045 53.0076 759.045 51.3636Z" fill="#2F6DFE"/>
<path d="M371.472 98.3636V110H369.011V98.3636H371.472ZM378.092 101.273V103.091H372.837V101.273H378.092ZM374.03 99.1818H376.45V107.318C376.45 107.542 376.484 107.716 376.553 107.841C376.621 107.962 376.715 108.047 376.837 108.097C376.962 108.146 377.106 108.17 377.268 108.17C377.382 108.17 377.496 108.161 377.609 108.142C377.723 108.119 377.81 108.102 377.871 108.091L378.251 109.892C378.13 109.93 377.96 109.973 377.74 110.023C377.52 110.076 377.253 110.108 376.939 110.119C376.356 110.142 375.844 110.064 375.405 109.886C374.969 109.708 374.63 109.432 374.388 109.057C374.145 108.682 374.026 108.208 374.03 107.636V99.1818ZM383.553 110.17C382.655 110.17 381.882 109.989 381.234 109.625C380.59 109.258 380.094 108.739 379.746 108.068C379.397 107.394 379.223 106.597 379.223 105.676C379.223 104.778 379.397 103.991 379.746 103.312C380.094 102.634 380.585 102.106 381.217 101.727C381.854 101.348 382.6 101.159 383.456 101.159C384.032 101.159 384.568 101.252 385.064 101.438C385.564 101.619 386 101.894 386.371 102.261C386.746 102.629 387.037 103.091 387.246 103.648C387.454 104.201 387.558 104.848 387.558 105.591V106.256H380.189V104.756H385.28C385.28 104.407 385.204 104.098 385.053 103.83C384.901 103.561 384.691 103.35 384.422 103.199C384.157 103.044 383.848 102.966 383.496 102.966C383.128 102.966 382.803 103.051 382.518 103.222C382.238 103.388 382.018 103.614 381.859 103.898C381.7 104.178 381.619 104.491 381.615 104.835V106.261C381.615 106.693 381.695 107.066 381.854 107.381C382.017 107.695 382.246 107.938 382.541 108.108C382.837 108.278 383.187 108.364 383.592 108.364C383.861 108.364 384.107 108.326 384.331 108.25C384.554 108.174 384.746 108.061 384.905 107.909C385.064 107.758 385.185 107.572 385.268 107.352L387.507 107.5C387.393 108.038 387.161 108.508 386.808 108.909C386.46 109.307 386.009 109.617 385.456 109.841C384.907 110.061 384.272 110.17 383.553 110.17ZM389.138 110V101.273H391.445V102.812H391.547C391.729 102.301 392.032 101.898 392.456 101.602C392.88 101.307 393.388 101.159 393.979 101.159C394.577 101.159 395.087 101.309 395.507 101.608C395.928 101.903 396.208 102.305 396.348 102.812H396.439C396.617 102.312 396.939 101.913 397.405 101.614C397.875 101.311 398.429 101.159 399.07 101.159C399.884 101.159 400.545 101.419 401.053 101.938C401.564 102.453 401.82 103.184 401.82 104.131V110H399.405V104.608C399.405 104.123 399.276 103.759 399.018 103.517C398.761 103.275 398.439 103.153 398.053 103.153C397.613 103.153 397.27 103.294 397.024 103.574C396.778 103.85 396.655 104.216 396.655 104.67V110H394.308V104.557C394.308 104.129 394.185 103.788 393.939 103.534C393.696 103.28 393.376 103.153 392.979 103.153C392.71 103.153 392.467 103.222 392.251 103.358C392.039 103.491 391.871 103.678 391.746 103.92C391.621 104.159 391.558 104.439 391.558 104.761V110H389.138ZM411.378 110.17C410.495 110.17 409.732 109.983 409.088 109.608C408.448 109.229 407.954 108.703 407.605 108.028C407.257 107.35 407.082 106.564 407.082 105.67C407.082 104.769 407.257 103.981 407.605 103.307C407.954 102.629 408.448 102.102 409.088 101.727C409.732 101.348 410.495 101.159 411.378 101.159C412.26 101.159 413.022 101.348 413.662 101.727C414.306 102.102 414.802 102.629 415.151 103.307C415.499 103.981 415.673 104.769 415.673 105.67C415.673 106.564 415.499 107.35 415.151 108.028C414.802 108.703 414.306 109.229 413.662 109.608C413.022 109.983 412.26 110.17 411.378 110.17ZM411.389 108.295C411.791 108.295 412.126 108.182 412.395 107.955C412.664 107.723 412.866 107.409 413.003 107.011C413.143 106.614 413.213 106.161 413.213 105.653C413.213 105.146 413.143 104.693 413.003 104.295C412.866 103.898 412.664 103.583 412.395 103.352C412.126 103.121 411.791 103.006 411.389 103.006C410.984 103.006 410.643 103.121 410.366 103.352C410.094 103.583 409.887 103.898 409.747 104.295C409.611 104.693 409.543 105.146 409.543 105.653C409.543 106.161 409.611 106.614 409.747 107.011C409.887 107.409 410.094 107.723 410.366 107.955C410.643 108.182 410.984 108.295 411.389 108.295ZM419.668 104.955V110H417.247V101.273H419.554V102.812H419.656C419.849 102.305 420.173 101.903 420.628 101.608C421.082 101.309 421.634 101.159 422.281 101.159C422.887 101.159 423.416 101.292 423.866 101.557C424.317 101.822 424.668 102.201 424.918 102.693C425.168 103.182 425.293 103.765 425.293 104.443V110H422.872V104.875C422.876 104.341 422.74 103.924 422.463 103.625C422.187 103.322 421.806 103.17 421.321 103.17C420.995 103.17 420.707 103.241 420.457 103.381C420.211 103.521 420.018 103.725 419.878 103.994C419.741 104.259 419.671 104.58 419.668 104.955ZM431.178 110.17C430.28 110.17 429.507 109.989 428.859 109.625C428.215 109.258 427.719 108.739 427.371 108.068C427.022 107.394 426.848 106.597 426.848 105.676C426.848 104.778 427.022 103.991 427.371 103.312C427.719 102.634 428.21 102.106 428.842 101.727C429.479 101.348 430.225 101.159 431.081 101.159C431.657 101.159 432.193 101.252 432.689 101.438C433.189 101.619 433.625 101.894 433.996 102.261C434.371 102.629 434.662 103.091 434.871 103.648C435.079 104.201 435.183 104.848 435.183 105.591V106.256H427.814V104.756H432.905C432.905 104.407 432.829 104.098 432.678 103.83C432.526 103.561 432.316 103.35 432.047 103.199C431.782 103.044 431.473 102.966 431.121 102.966C430.753 102.966 430.428 103.051 430.143 103.222C429.863 103.388 429.643 103.614 429.484 103.898C429.325 104.178 429.244 104.491 429.24 104.835V106.261C429.24 106.693 429.32 107.066 429.479 107.381C429.642 107.695 429.871 107.938 430.166 108.108C430.462 108.278 430.812 108.364 431.217 108.364C431.486 108.364 431.732 108.326 431.956 108.25C432.179 108.174 432.371 108.061 432.53 107.909C432.689 107.758 432.81 107.572 432.893 107.352L435.132 107.5C435.018 108.038 434.786 108.508 434.433 108.909C434.085 109.307 433.634 109.617 433.081 109.841C432.532 110.061 431.897 110.17 431.178 110.17Z" fill="#2F6DFE"/>
<path d="M471.472 98.3636V110H469.011V98.3636H471.472ZM478.092 101.273V103.091H472.837V101.273H478.092ZM474.03 99.1818H476.45V107.318C476.45 107.542 476.484 107.716 476.553 107.841C476.621 107.962 476.715 108.047 476.837 108.097C476.962 108.146 477.106 108.17 477.268 108.17C477.382 108.17 477.496 108.161 477.609 108.142C477.723 108.119 477.81 108.102 477.871 108.091L478.251 109.892C478.13 109.93 477.96 109.973 477.74 110.023C477.52 110.076 477.253 110.108 476.939 110.119C476.356 110.142 475.844 110.064 475.405 109.886C474.969 109.708 474.63 109.432 474.388 109.057C474.145 108.682 474.026 108.208 474.03 107.636V99.1818ZM483.553 110.17C482.655 110.17 481.882 109.989 481.234 109.625C480.59 109.258 480.094 108.739 479.746 108.068C479.397 107.394 479.223 106.597 479.223 105.676C479.223 104.778 479.397 103.991 479.746 103.312C480.094 102.634 480.585 102.106 481.217 101.727C481.854 101.348 482.6 101.159 483.456 101.159C484.032 101.159 484.568 101.252 485.064 101.438C485.564 101.619 486 101.894 486.371 102.261C486.746 102.629 487.037 103.091 487.246 103.648C487.454 104.201 487.558 104.848 487.558 105.591V106.256H480.189V104.756H485.28C485.28 104.407 485.204 104.098 485.053 103.83C484.901 103.561 484.691 103.35 484.422 103.199C484.157 103.044 483.848 102.966 483.496 102.966C483.128 102.966 482.803 103.051 482.518 103.222C482.238 103.388 482.018 103.614 481.859 103.898C481.7 104.178 481.619 104.491 481.615 104.835V106.261C481.615 106.693 481.695 107.066 481.854 107.381C482.017 107.695 482.246 107.938 482.541 108.108C482.837 108.278 483.187 108.364 483.592 108.364C483.861 108.364 484.107 108.326 484.331 108.25C484.554 108.174 484.746 108.061 484.905 107.909C485.064 107.758 485.185 107.572 485.268 107.352L487.507 107.5C487.393 108.038 487.161 108.508 486.808 108.909C486.46 109.307 486.009 109.617 485.456 109.841C484.907 110.061 484.272 110.17 483.553 110.17ZM489.138 110V101.273H491.445V102.812H491.547C491.729 102.301 492.032 101.898 492.456 101.602C492.88 101.307 493.388 101.159 493.979 101.159C494.577 101.159 495.087 101.309 495.507 101.608C495.928 101.903 496.208 102.305 496.348 102.812H496.439C496.617 102.312 496.939 101.913 497.405 101.614C497.875 101.311 498.429 101.159 499.07 101.159C499.884 101.159 500.545 101.419 501.053 101.938C501.564 102.453 501.82 103.184 501.82 104.131V110H499.405V104.608C499.405 104.123 499.276 103.759 499.018 103.517C498.761 103.275 498.439 103.153 498.053 103.153C497.613 103.153 497.27 103.294 497.024 103.574C496.778 103.85 496.655 104.216 496.655 104.67V110H494.308V104.557C494.308 104.129 494.185 103.788 493.939 103.534C493.696 103.28 493.376 103.153 492.979 103.153C492.71 103.153 492.467 103.222 492.251 103.358C492.039 103.491 491.871 103.678 491.746 103.92C491.621 104.159 491.558 104.439 491.558 104.761V110H489.138ZM512.077 101.273V103.091H506.821V101.273H512.077ZM508.014 99.1818H510.435V107.318C510.435 107.542 510.469 107.716 510.537 107.841C510.605 107.962 510.7 108.047 510.821 108.097C510.946 108.146 511.09 108.17 511.253 108.17C511.366 108.17 511.48 108.161 511.594 108.142C511.707 108.119 511.795 108.102 511.855 108.091L512.236 109.892C512.115 109.93 511.944 109.973 511.724 110.023C511.505 110.076 511.238 110.108 510.923 110.119C510.34 110.142 509.829 110.064 509.389 109.886C508.954 109.708 508.615 109.432 508.372 109.057C508.13 108.682 508.01 108.208 508.014 107.636V99.1818ZM515.375 110L513 101.273H515.449L516.801 107.136H516.881L518.29 101.273H520.693L522.125 107.102H522.199L523.528 101.273H525.972L523.602 110H521.04L519.54 104.511H519.432L517.932 110H515.375ZM530.987 110.17C530.105 110.17 529.341 109.983 528.697 109.608C528.057 109.229 527.563 108.703 527.214 108.028C526.866 107.35 526.692 106.564 526.692 105.67C526.692 104.769 526.866 103.981 527.214 103.307C527.563 102.629 528.057 102.102 528.697 101.727C529.341 101.348 530.105 101.159 530.987 101.159C531.87 101.159 532.631 101.348 533.271 101.727C533.915 102.102 534.411 102.629 534.76 103.307C535.108 103.981 535.283 104.769 535.283 105.67C535.283 106.564 535.108 107.35 534.76 108.028C534.411 108.703 533.915 109.229 533.271 109.608C532.631 109.983 531.87 110.17 530.987 110.17ZM530.999 108.295C531.4 108.295 531.735 108.182 532.004 107.955C532.273 107.723 532.476 107.409 532.612 107.011C532.752 106.614 532.822 106.161 532.822 105.653C532.822 105.146 532.752 104.693 532.612 104.295C532.476 103.898 532.273 103.583 532.004 103.352C531.735 103.121 531.4 103.006 530.999 103.006C530.593 103.006 530.252 103.121 529.976 103.352C529.703 103.583 529.497 103.898 529.357 104.295C529.22 104.693 529.152 105.146 529.152 105.653C529.152 106.161 529.22 106.614 529.357 107.011C529.497 107.409 529.703 107.723 529.976 107.955C530.252 108.182 530.593 108.295 530.999 108.295Z" fill="#5D5D5D"/>
<path d="M571.472 98.3636V110H569.011V98.3636H571.472ZM578.092 101.273V103.091H572.837V101.273H578.092ZM574.03 99.1818H576.45V107.318C576.45 107.542 576.484 107.716 576.553 107.841C576.621 107.962 576.715 108.047 576.837 108.097C576.962 108.146 577.106 108.17 577.268 108.17C577.382 108.17 577.496 108.161 577.609 108.142C577.723 108.119 577.81 108.102 577.871 108.091L578.251 109.892C578.13 109.93 577.96 109.973 577.74 110.023C577.52 110.076 577.253 110.108 576.939 110.119C576.356 110.142 575.844 110.064 575.405 109.886C574.969 109.708 574.63 109.432 574.388 109.057C574.145 108.682 574.026 108.208 574.03 107.636V99.1818ZM583.553 110.17C582.655 110.17 581.882 109.989 581.234 109.625C580.59 109.258 580.094 108.739 579.746 108.068C579.397 107.394 579.223 106.597 579.223 105.676C579.223 104.778 579.397 103.991 579.746 103.312C580.094 102.634 580.585 102.106 581.217 101.727C581.854 101.348 582.6 101.159 583.456 101.159C584.032 101.159 584.568 101.252 585.064 101.438C585.564 101.619 586 101.894 586.371 102.261C586.746 102.629 587.037 103.091 587.246 103.648C587.454 104.201 587.558 104.848 587.558 105.591V106.256H580.189V104.756H585.28C585.28 104.407 585.204 104.098 585.053 103.83C584.901 103.561 584.691 103.35 584.422 103.199C584.157 103.044 583.848 102.966 583.496 102.966C583.128 102.966 582.803 103.051 582.518 103.222C582.238 103.388 582.018 103.614 581.859 103.898C581.7 104.178 581.619 104.491 581.615 104.835V106.261C581.615 106.693 581.695 107.066 581.854 107.381C582.017 107.695 582.246 107.938 582.541 108.108C582.837 108.278 583.187 108.364 583.592 108.364C583.861 108.364 584.107 108.326 584.331 108.25C584.554 108.174 584.746 108.061 584.905 107.909C585.064 107.758 585.185 107.572 585.268 107.352L587.507 107.5C587.393 108.038 587.161 108.508 586.808 108.909C586.46 109.307 586.009 109.617 585.456 109.841C584.907 110.061 584.272 110.17 583.553 110.17ZM589.138 110V101.273H591.445V102.812H591.547C591.729 102.301 592.032 101.898 592.456 101.602C592.88 101.307 593.388 101.159 593.979 101.159C594.577 101.159 595.087 101.309 595.507 101.608C595.928 101.903 596.208 102.305 596.348 102.812H596.439C596.617 102.312 596.939 101.913 597.405 101.614C597.875 101.311 598.429 101.159 599.07 101.159C599.884 101.159 600.545 101.419 601.053 101.938C601.564 102.453 601.82 103.184 601.82 104.131V110H599.405V104.608C599.405 104.123 599.276 103.759 599.018 103.517C598.761 103.275 598.439 103.153 598.053 103.153C597.613 103.153 597.27 103.294 597.024 103.574C596.778 103.85 596.655 104.216 596.655 104.67V110H594.308V104.557C594.308 104.129 594.185 103.788 593.939 103.534C593.696 103.28 593.376 103.153 592.979 103.153C592.71 103.153 592.467 103.222 592.251 103.358C592.039 103.491 591.871 103.678 591.746 103.92C591.621 104.159 591.558 104.439 591.558 104.761V110H589.138ZM612.077 101.273V103.091H606.821V101.273H612.077ZM608.014 99.1818H610.435V107.318C610.435 107.542 610.469 107.716 610.537 107.841C610.605 107.962 610.7 108.047 610.821 108.097C610.946 108.146 611.09 108.17 611.253 108.17C611.366 108.17 611.48 108.161 611.594 108.142C611.707 108.119 611.795 108.102 611.855 108.091L612.236 109.892C612.115 109.93 611.944 109.973 611.724 110.023C611.505 110.076 611.238 110.108 610.923 110.119C610.34 110.142 609.829 110.064 609.389 109.886C608.954 109.708 608.615 109.432 608.372 109.057C608.13 108.682 608.01 108.208 608.014 107.636V99.1818ZM616.261 104.955V110H613.841V98.3636H616.193V102.812H616.295C616.492 102.297 616.811 101.894 617.25 101.602C617.689 101.307 618.241 101.159 618.903 101.159C619.509 101.159 620.038 101.292 620.489 101.557C620.943 101.818 621.295 102.195 621.545 102.688C621.799 103.176 621.924 103.761 621.92 104.443V110H619.5V104.875C619.504 104.337 619.367 103.919 619.091 103.619C618.818 103.32 618.436 103.17 617.943 103.17C617.614 103.17 617.322 103.241 617.068 103.381C616.818 103.521 616.621 103.725 616.477 103.994C616.337 104.259 616.265 104.58 616.261 104.955ZM623.825 110V101.273H626.172V102.795H626.263C626.422 102.254 626.689 101.845 627.064 101.568C627.439 101.288 627.871 101.148 628.359 101.148C628.481 101.148 628.611 101.155 628.751 101.17C628.892 101.186 629.015 101.206 629.121 101.233V103.381C629.007 103.347 628.85 103.316 628.649 103.29C628.448 103.263 628.265 103.25 628.098 103.25C627.742 103.25 627.424 103.328 627.143 103.483C626.867 103.634 626.647 103.847 626.484 104.119C626.325 104.392 626.246 104.706 626.246 105.062V110H623.825ZM633.943 110.17C633.045 110.17 632.273 109.989 631.625 109.625C630.981 109.258 630.485 108.739 630.136 108.068C629.788 107.394 629.614 106.597 629.614 105.676C629.614 104.778 629.788 103.991 630.136 103.312C630.485 102.634 630.975 102.106 631.608 101.727C632.244 101.348 632.991 101.159 633.847 101.159C634.422 101.159 634.958 101.252 635.455 101.438C635.955 101.619 636.39 101.894 636.761 102.261C637.136 102.629 637.428 103.091 637.636 103.648C637.845 104.201 637.949 104.848 637.949 105.591V106.256H630.58V104.756H635.67C635.67 104.407 635.595 104.098 635.443 103.83C635.292 103.561 635.081 103.35 634.812 103.199C634.547 103.044 634.239 102.966 633.886 102.966C633.519 102.966 633.193 103.051 632.909 103.222C632.629 103.388 632.409 103.614 632.25 103.898C632.091 104.178 632.009 104.491 632.006 104.835V106.261C632.006 106.693 632.085 107.066 632.244 107.381C632.407 107.695 632.636 107.938 632.932 108.108C633.227 108.278 633.578 108.364 633.983 108.364C634.252 108.364 634.498 108.326 634.722 108.25C634.945 108.174 635.136 108.061 635.295 107.909C635.455 107.758 635.576 107.572 635.659 107.352L637.898 107.5C637.784 108.038 637.551 108.508 637.199 108.909C636.85 109.307 636.4 109.617 635.847 109.841C635.297 110.061 634.663 110.17 633.943 110.17ZM643.506 110.17C642.608 110.17 641.835 109.989 641.188 109.625C640.544 109.258 640.047 108.739 639.699 108.068C639.35 107.394 639.176 106.597 639.176 105.676C639.176 104.778 639.35 103.991 639.699 103.312C640.047 102.634 640.538 102.106 641.17 101.727C641.807 101.348 642.553 101.159 643.409 101.159C643.985 101.159 644.521 101.252 645.017 101.438C645.517 101.619 645.953 101.894 646.324 102.261C646.699 102.629 646.991 103.091 647.199 103.648C647.407 104.201 647.511 104.848 647.511 105.591V106.256H640.142V104.756H645.233C645.233 104.407 645.157 104.098 645.006 103.83C644.854 103.561 644.644 103.35 644.375 103.199C644.11 103.044 643.801 102.966 643.449 102.966C643.081 102.966 642.756 103.051 642.472 103.222C642.191 103.388 641.972 103.614 641.812 103.898C641.653 104.178 641.572 104.491 641.568 104.835V106.261C641.568 106.693 641.648 107.066 641.807 107.381C641.97 107.695 642.199 107.938 642.494 108.108C642.79 108.278 643.14 108.364 643.545 108.364C643.814 108.364 644.061 108.326 644.284 108.25C644.508 108.174 644.699 108.061 644.858 107.909C645.017 107.758 645.138 107.572 645.222 107.352L647.46 107.5C647.347 108.038 647.114 108.508 646.761 108.909C646.413 109.307 645.962 109.617 645.409 109.841C644.86 110.061 644.225 110.17 643.506 110.17Z" fill="#5D5D5D"/>
<path d="M684.472 98.3636V110H682.011V98.3636H684.472ZM691.092 101.273V103.091H685.837V101.273H691.092ZM687.03 99.1818H689.45V107.318C689.45 107.542 689.484 107.716 689.553 107.841C689.621 107.962 689.715 108.047 689.837 108.097C689.962 108.146 690.106 108.17 690.268 108.17C690.382 108.17 690.496 108.161 690.609 108.142C690.723 108.119 690.81 108.102 690.871 108.091L691.251 109.892C691.13 109.93 690.96 109.973 690.74 110.023C690.52 110.076 690.253 110.108 689.939 110.119C689.356 110.142 688.844 110.064 688.405 109.886C687.969 109.708 687.63 109.432 687.388 109.057C687.145 108.682 687.026 108.208 687.03 107.636V99.1818ZM696.553 110.17C695.655 110.17 694.882 109.989 694.234 109.625C693.59 109.258 693.094 108.739 692.746 108.068C692.397 107.394 692.223 106.597 692.223 105.676C692.223 104.778 692.397 103.991 692.746 103.312C693.094 102.634 693.585 102.106 694.217 101.727C694.854 101.348 695.6 101.159 696.456 101.159C697.032 101.159 697.568 101.252 698.064 101.438C698.564 101.619 699 101.894 699.371 102.261C699.746 102.629 700.037 103.091 700.246 103.648C700.454 104.201 700.558 104.848 700.558 105.591V106.256H693.189V104.756H698.28C698.28 104.407 698.204 104.098 698.053 103.83C697.901 103.561 697.691 103.35 697.422 103.199C697.157 103.044 696.848 102.966 696.496 102.966C696.128 102.966 695.803 103.051 695.518 103.222C695.238 103.388 695.018 103.614 694.859 103.898C694.7 104.178 694.619 104.491 694.615 104.835V106.261C694.615 106.693 694.695 107.066 694.854 107.381C695.017 107.695 695.246 107.938 695.541 108.108C695.837 108.278 696.187 108.364 696.592 108.364C696.861 108.364 697.107 108.326 697.331 108.25C697.554 108.174 697.746 108.061 697.905 107.909C698.064 107.758 698.185 107.572 698.268 107.352L700.507 107.5C700.393 108.038 700.161 108.508 699.808 108.909C699.46 109.307 699.009 109.617 698.456 109.841C697.907 110.061 697.272 110.17 696.553 110.17ZM702.138 110V101.273H704.445V102.812H704.547C704.729 102.301 705.032 101.898 705.456 101.602C705.88 101.307 706.388 101.159 706.979 101.159C707.577 101.159 708.087 101.309 708.507 101.608C708.928 101.903 709.208 102.305 709.348 102.812H709.439C709.617 102.312 709.939 101.913 710.405 101.614C710.875 101.311 711.429 101.159 712.07 101.159C712.884 101.159 713.545 101.419 714.053 101.938C714.564 102.453 714.82 103.184 714.82 104.131V110H712.405V104.608C712.405 104.123 712.276 103.759 712.018 103.517C711.761 103.275 711.439 103.153 711.053 103.153C710.613 103.153 710.27 103.294 710.024 103.574C709.778 103.85 709.655 104.216 709.655 104.67V110H707.308V104.557C707.308 104.129 707.185 103.788 706.939 103.534C706.696 103.28 706.376 103.153 705.979 103.153C705.71 103.153 705.467 103.222 705.251 103.358C705.039 103.491 704.871 103.678 704.746 103.92C704.621 104.159 704.558 104.439 704.558 104.761V110H702.138ZM725.128 101.273V103.091H719.741V101.273H725.128ZM720.974 110V100.642C720.974 100.009 721.098 99.4848 721.344 99.0682C721.594 98.6515 721.935 98.339 722.366 98.1307C722.798 97.9223 723.289 97.8182 723.838 97.8182C724.209 97.8182 724.548 97.8466 724.855 97.9034C725.166 97.9602 725.397 98.0114 725.548 98.0568L725.116 99.875C725.022 99.8447 724.904 99.8163 724.764 99.7898C724.628 99.7633 724.488 99.75 724.344 99.75C723.988 99.75 723.74 99.8333 723.599 100C723.459 100.163 723.389 100.392 723.389 100.688V110H720.974ZM730.237 110.17C729.355 110.17 728.591 109.983 727.947 109.608C727.307 109.229 726.813 108.703 726.464 108.028C726.116 107.35 725.942 106.564 725.942 105.67C725.942 104.769 726.116 103.981 726.464 103.307C726.813 102.629 727.307 102.102 727.947 101.727C728.591 101.348 729.355 101.159 730.237 101.159C731.12 101.159 731.881 101.348 732.521 101.727C733.165 102.102 733.661 102.629 734.01 103.307C734.358 103.981 734.533 104.769 734.533 105.67C734.533 106.564 734.358 107.35 734.01 108.028C733.661 108.703 733.165 109.229 732.521 109.608C731.881 109.983 731.12 110.17 730.237 110.17ZM730.249 108.295C730.65 108.295 730.985 108.182 731.254 107.955C731.523 107.723 731.726 107.409 731.862 107.011C732.002 106.614 732.072 106.161 732.072 105.653C732.072 105.146 732.002 104.693 731.862 104.295C731.726 103.898 731.523 103.583 731.254 103.352C730.985 103.121 730.65 103.006 730.249 103.006C729.843 103.006 729.502 103.121 729.226 103.352C728.953 103.583 728.747 103.898 728.607 104.295C728.47 104.693 728.402 105.146 728.402 105.653C728.402 106.161 728.47 106.614 728.607 107.011C728.747 107.409 728.953 107.723 729.226 107.955C729.502 108.182 729.843 108.295 730.249 108.295ZM741.703 106.284V101.273H744.124V110H741.8V108.415H741.709C741.512 108.926 741.184 109.337 740.726 109.648C740.271 109.958 739.716 110.114 739.061 110.114C738.478 110.114 737.964 109.981 737.521 109.716C737.078 109.451 736.732 109.074 736.482 108.585C736.235 108.097 736.11 107.511 736.107 106.83V101.273H738.527V106.398C738.531 106.913 738.669 107.32 738.942 107.619C739.214 107.919 739.58 108.068 740.038 108.068C740.33 108.068 740.603 108.002 740.857 107.869C741.11 107.733 741.315 107.532 741.47 107.267C741.629 107.002 741.707 106.674 741.703 106.284ZM746.06 110V101.273H748.406V102.795H748.497C748.656 102.254 748.923 101.845 749.298 101.568C749.673 101.288 750.105 101.148 750.594 101.148C750.715 101.148 750.846 101.155 750.986 101.17C751.126 101.186 751.249 101.206 751.355 101.233V103.381C751.241 103.347 751.084 103.316 750.884 103.29C750.683 103.263 750.499 103.25 750.332 103.25C749.976 103.25 749.658 103.328 749.378 103.483C749.101 103.634 748.882 103.847 748.719 104.119C748.56 104.392 748.48 104.706 748.48 105.062V110H746.06Z" fill="#5D5D5D"/>
<path d="M857.017 110H854.381L858.398 98.3636H861.568L865.58 110H862.943L860.028 101.023H859.938L857.017 110ZM856.852 105.426H863.08V107.347H856.852V105.426ZM870.472 110.17C869.578 110.17 868.809 109.981 868.165 109.602C867.525 109.22 867.032 108.689 866.688 108.011C866.347 107.333 866.176 106.553 866.176 105.67C866.176 104.777 866.348 103.992 866.693 103.318C867.042 102.64 867.536 102.112 868.176 101.733C868.816 101.35 869.578 101.159 870.46 101.159C871.222 101.159 871.888 101.297 872.46 101.574C873.032 101.85 873.485 102.239 873.818 102.739C874.152 103.239 874.335 103.826 874.369 104.5H872.085C872.021 104.064 871.85 103.714 871.574 103.449C871.301 103.18 870.943 103.045 870.5 103.045C870.125 103.045 869.797 103.148 869.517 103.352C869.241 103.553 869.025 103.847 868.869 104.233C868.714 104.619 868.636 105.087 868.636 105.636C868.636 106.193 868.712 106.667 868.864 107.057C869.019 107.447 869.237 107.744 869.517 107.949C869.797 108.153 870.125 108.256 870.5 108.256C870.777 108.256 871.025 108.199 871.244 108.085C871.468 107.972 871.652 107.807 871.795 107.591C871.943 107.371 872.04 107.108 872.085 106.801H874.369C874.331 107.468 874.15 108.055 873.824 108.562C873.502 109.066 873.057 109.46 872.489 109.744C871.92 110.028 871.248 110.17 870.472 110.17ZM880.561 101.273V103.091H875.305V101.273H880.561ZM876.499 99.1818H878.919V107.318C878.919 107.542 878.953 107.716 879.021 107.841C879.089 107.962 879.184 108.047 879.305 108.097C879.43 108.146 879.574 108.17 879.737 108.17C879.851 108.17 879.964 108.161 880.078 108.142C880.192 108.119 880.279 108.102 880.339 108.091L880.72 109.892C880.599 109.93 880.429 109.973 880.209 110.023C879.989 110.076 879.722 110.108 879.408 110.119C878.824 110.142 878.313 110.064 877.874 109.886C877.438 109.708 877.099 109.432 876.857 109.057C876.614 108.682 876.495 108.208 876.499 107.636V99.1818ZM882.138 110V101.273H884.558V110H882.138ZM883.354 100.148C882.994 100.148 882.685 100.028 882.428 99.7898C882.174 99.5473 882.047 99.2576 882.047 98.9205C882.047 98.5871 882.174 98.3011 882.428 98.0625C882.685 97.8201 882.994 97.6989 883.354 97.6989C883.714 97.6989 884.02 97.8201 884.274 98.0625C884.532 98.3011 884.661 98.5871 884.661 98.9205C884.661 99.2576 884.532 99.5473 884.274 99.7898C884.02 100.028 883.714 100.148 883.354 100.148ZM890.44 110.17C889.558 110.17 888.795 109.983 888.151 109.608C887.51 109.229 887.016 108.703 886.668 108.028C886.319 107.35 886.145 106.564 886.145 105.67C886.145 104.769 886.319 103.981 886.668 103.307C887.016 102.629 887.51 102.102 888.151 101.727C888.795 101.348 889.558 101.159 890.44 101.159C891.323 101.159 892.084 101.348 892.724 101.727C893.368 102.102 893.865 102.629 894.213 103.307C894.562 103.981 894.736 104.769 894.736 105.67C894.736 106.564 894.562 107.35 894.213 108.028C893.865 108.703 893.368 109.229 892.724 109.608C892.084 109.983 891.323 110.17 890.44 110.17ZM890.452 108.295C890.853 108.295 891.188 108.182 891.457 107.955C891.726 107.723 891.929 107.409 892.065 107.011C892.205 106.614 892.276 106.161 892.276 105.653C892.276 105.146 892.205 104.693 892.065 104.295C891.929 103.898 891.726 103.583 891.457 103.352C891.188 103.121 890.853 103.006 890.452 103.006C890.046 103.006 889.705 103.121 889.429 103.352C889.156 103.583 888.95 103.898 888.81 104.295C888.673 104.693 888.605 105.146 888.605 105.653C888.605 106.161 888.673 106.614 888.81 107.011C888.95 107.409 889.156 107.723 889.429 107.955C889.705 108.182 890.046 108.295 890.452 108.295ZM898.73 104.955V110H896.31V101.273H898.616V102.812H898.719C898.912 102.305 899.236 101.903 899.69 101.608C900.145 101.309 900.696 101.159 901.344 101.159C901.95 101.159 902.478 101.292 902.929 101.557C903.38 101.822 903.73 102.201 903.98 102.693C904.23 103.182 904.355 103.765 904.355 104.443V110H901.935V104.875C901.938 104.341 901.802 103.924 901.526 103.625C901.249 103.322 900.868 103.17 900.384 103.17C900.058 103.17 899.77 103.241 899.52 103.381C899.274 103.521 899.08 103.725 898.94 103.994C898.804 104.259 898.734 104.58 898.73 104.955ZM913.909 110.17C913.027 110.17 912.263 109.983 911.619 109.608C910.979 109.229 910.485 108.703 910.136 108.028C909.788 107.35 909.614 106.564 909.614 105.67C909.614 104.769 909.788 103.981 910.136 103.307C910.485 102.629 910.979 102.102 911.619 101.727C912.263 101.348 913.027 101.159 913.909 101.159C914.792 101.159 915.553 101.348 916.193 101.727C916.837 102.102 917.333 102.629 917.682 103.307C918.03 103.981 918.205 104.769 918.205 105.67C918.205 106.564 918.03 107.35 917.682 108.028C917.333 108.703 916.837 109.229 916.193 109.608C915.553 109.983 914.792 110.17 913.909 110.17ZM913.92 108.295C914.322 108.295 914.657 108.182 914.926 107.955C915.195 107.723 915.398 107.409 915.534 107.011C915.674 106.614 915.744 106.161 915.744 105.653C915.744 105.146 915.674 104.693 915.534 104.295C915.398 103.898 915.195 103.583 914.926 103.352C914.657 103.121 914.322 103.006 913.92 103.006C913.515 103.006 913.174 103.121 912.898 103.352C912.625 103.583 912.419 103.898 912.278 104.295C912.142 104.693 912.074 105.146 912.074 105.653C912.074 106.161 912.142 106.614 912.278 107.011C912.419 107.409 912.625 107.723 912.898 107.955C913.174 108.182 913.515 108.295 913.92 108.295ZM922.199 104.955V110H919.778V101.273H922.085V102.812H922.188C922.381 102.305 922.705 101.903 923.159 101.608C923.614 101.309 924.165 101.159 924.812 101.159C925.419 101.159 925.947 101.292 926.398 101.557C926.848 101.822 927.199 102.201 927.449 102.693C927.699 103.182 927.824 103.765 927.824 104.443V110H925.403V104.875C925.407 104.341 925.271 103.924 924.994 103.625C924.718 103.322 924.337 103.17 923.852 103.17C923.527 103.17 923.239 103.241 922.989 103.381C922.742 103.521 922.549 103.725 922.409 103.994C922.273 104.259 922.203 104.58 922.199 104.955ZM933.709 110.17C932.811 110.17 932.038 109.989 931.391 109.625C930.747 109.258 930.25 108.739 929.902 108.068C929.554 107.394 929.379 106.597 929.379 105.676C929.379 104.778 929.554 103.991 929.902 103.312C930.25 102.634 930.741 102.106 931.374 101.727C932.01 101.348 932.756 101.159 933.612 101.159C934.188 101.159 934.724 101.252 935.22 101.438C935.72 101.619 936.156 101.894 936.527 102.261C936.902 102.629 937.194 103.091 937.402 103.648C937.61 104.201 937.714 104.848 937.714 105.591V106.256H930.345V104.756H935.436C935.436 104.407 935.36 104.098 935.209 103.83C935.057 103.561 934.847 103.35 934.578 103.199C934.313 103.044 934.004 102.966 933.652 102.966C933.285 102.966 932.959 103.051 932.675 103.222C932.394 103.388 932.175 103.614 932.016 103.898C931.857 104.178 931.775 104.491 931.771 104.835V106.261C931.771 106.693 931.851 107.066 932.01 107.381C932.173 107.695 932.402 107.938 932.697 108.108C932.993 108.278 933.343 108.364 933.749 108.364C934.018 108.364 934.264 108.326 934.487 108.25C934.711 108.174 934.902 108.061 935.061 107.909C935.22 107.758 935.341 107.572 935.425 107.352L937.663 107.5C937.55 108.038 937.317 108.508 936.964 108.909C936.616 109.307 936.165 109.617 935.612 109.841C935.063 110.061 934.429 110.17 933.709 110.17Z" fill="#5D5D5D"/>
<path d="M974.017 110H971.381L975.398 98.3636H978.568L982.58 110H979.943L977.028 101.023H976.938L974.017 110ZM973.852 105.426H980.08V107.347H973.852V105.426ZM987.472 110.17C986.578 110.17 985.809 109.981 985.165 109.602C984.525 109.22 984.032 108.689 983.688 108.011C983.347 107.333 983.176 106.553 983.176 105.67C983.176 104.777 983.348 103.992 983.693 103.318C984.042 102.64 984.536 102.112 985.176 101.733C985.816 101.35 986.578 101.159 987.46 101.159C988.222 101.159 988.888 101.297 989.46 101.574C990.032 101.85 990.485 102.239 990.818 102.739C991.152 103.239 991.335 103.826 991.369 104.5H989.085C989.021 104.064 988.85 103.714 988.574 103.449C988.301 103.18 987.943 103.045 987.5 103.045C987.125 103.045 986.797 103.148 986.517 103.352C986.241 103.553 986.025 103.847 985.869 104.233C985.714 104.619 985.636 105.087 985.636 105.636C985.636 106.193 985.712 106.667 985.864 107.057C986.019 107.447 986.237 107.744 986.517 107.949C986.797 108.153 987.125 108.256 987.5 108.256C987.777 108.256 988.025 108.199 988.244 108.085C988.468 107.972 988.652 107.807 988.795 107.591C988.943 107.371 989.04 107.108 989.085 106.801H991.369C991.331 107.468 991.15 108.055 990.824 108.562C990.502 109.066 990.057 109.46 989.489 109.744C988.92 110.028 988.248 110.17 987.472 110.17ZM997.561 101.273V103.091H992.305V101.273H997.561ZM993.499 99.1818H995.919V107.318C995.919 107.542 995.953 107.716 996.021 107.841C996.089 107.962 996.184 108.047 996.305 108.097C996.43 108.146 996.574 108.17 996.737 108.17C996.851 108.17 996.964 108.161 997.078 108.142C997.192 108.119 997.279 108.102 997.339 108.091L997.72 109.892C997.599 109.93 997.429 109.973 997.209 110.023C996.989 110.076 996.722 110.108 996.408 110.119C995.824 110.142 995.313 110.064 994.874 109.886C994.438 109.708 994.099 109.432 993.857 109.057C993.614 108.682 993.495 108.208 993.499 107.636V99.1818ZM999.138 110V101.273H1001.56V110H999.138ZM1000.35 100.148C999.994 100.148 999.685 100.028 999.428 99.7898C999.174 99.5473 999.047 99.2576 999.047 98.9205C999.047 98.5871 999.174 98.3011 999.428 98.0625C999.685 97.8201 999.994 97.6989 1000.35 97.6989C1000.71 97.6989 1001.02 97.8201 1001.27 98.0625C1001.53 98.3011 1001.66 98.5871 1001.66 98.9205C1001.66 99.2576 1001.53 99.5473 1001.27 99.7898C1001.02 100.028 1000.71 100.148 1000.35 100.148ZM1007.44 110.17C1006.56 110.17 1005.79 109.983 1005.15 109.608C1004.51 109.229 1004.02 108.703 1003.67 108.028C1003.32 107.35 1003.14 106.564 1003.14 105.67C1003.14 104.769 1003.32 103.981 1003.67 103.307C1004.02 102.629 1004.51 102.102 1005.15 101.727C1005.79 101.348 1006.56 101.159 1007.44 101.159C1008.32 101.159 1009.08 101.348 1009.72 101.727C1010.37 102.102 1010.86 102.629 1011.21 103.307C1011.56 103.981 1011.74 104.769 1011.74 105.67C1011.74 106.564 1011.56 107.35 1011.21 108.028C1010.86 108.703 1010.37 109.229 1009.72 109.608C1009.08 109.983 1008.32 110.17 1007.44 110.17ZM1007.45 108.295C1007.85 108.295 1008.19 108.182 1008.46 107.955C1008.73 107.723 1008.93 107.409 1009.07 107.011C1009.21 106.614 1009.28 106.161 1009.28 105.653C1009.28 105.146 1009.21 104.693 1009.07 104.295C1008.93 103.898 1008.73 103.583 1008.46 103.352C1008.19 103.121 1007.85 103.006 1007.45 103.006C1007.05 103.006 1006.71 103.121 1006.43 103.352C1006.16 103.583 1005.95 103.898 1005.81 104.295C1005.67 104.693 1005.61 105.146 1005.61 105.653C1005.61 106.161 1005.67 106.614 1005.81 107.011C1005.95 107.409 1006.16 107.723 1006.43 107.955C1006.71 108.182 1007.05 108.295 1007.45 108.295ZM1015.73 104.955V110H1013.31V101.273H1015.62V102.812H1015.72C1015.91 102.305 1016.24 101.903 1016.69 101.608C1017.14 101.309 1017.7 101.159 1018.34 101.159C1018.95 101.159 1019.48 101.292 1019.93 101.557C1020.38 101.822 1020.73 102.201 1020.98 102.693C1021.23 103.182 1021.36 103.765 1021.36 104.443V110H1018.93V104.875C1018.94 104.341 1018.8 103.924 1018.53 103.625C1018.25 103.322 1017.87 103.17 1017.38 103.17C1017.06 103.17 1016.77 103.241 1016.52 103.381C1016.27 103.521 1016.08 103.725 1015.94 103.994C1015.8 104.259 1015.73 104.58 1015.73 104.955ZM1031.61 101.273V103.091H1026.35V101.273H1031.61ZM1027.55 99.1818H1029.97V107.318C1029.97 107.542 1030 107.716 1030.07 107.841C1030.14 107.962 1030.23 108.047 1030.35 108.097C1030.48 108.146 1030.62 108.17 1030.78 108.17C1030.9 108.17 1031.01 108.161 1031.12 108.142C1031.24 108.119 1031.33 108.102 1031.39 108.091L1031.77 109.892C1031.65 109.93 1031.48 109.973 1031.26 110.023C1031.04 110.076 1030.77 110.108 1030.45 110.119C1029.87 110.142 1029.36 110.064 1028.92 109.886C1028.48 109.708 1028.15 109.432 1027.9 109.057C1027.66 108.682 1027.54 108.208 1027.55 107.636V99.1818ZM1034.91 110L1032.53 101.273H1034.98L1036.33 107.136H1036.41L1037.82 101.273H1040.22L1041.66 107.102H1041.73L1043.06 101.273H1045.5L1043.13 110H1040.57L1039.07 104.511H1038.96L1037.46 110H1034.91ZM1050.52 110.17C1049.64 110.17 1048.87 109.983 1048.23 109.608C1047.59 109.229 1047.09 108.703 1046.75 108.028C1046.4 107.35 1046.22 106.564 1046.22 105.67C1046.22 104.769 1046.4 103.981 1046.75 103.307C1047.09 102.629 1047.59 102.102 1048.23 101.727C1048.87 101.348 1049.64 101.159 1050.52 101.159C1051.4 101.159 1052.16 101.348 1052.8 101.727C1053.45 102.102 1053.94 102.629 1054.29 103.307C1054.64 103.981 1054.81 104.769 1054.81 105.67C1054.81 106.564 1054.64 107.35 1054.29 108.028C1053.94 108.703 1053.45 109.229 1052.8 109.608C1052.16 109.983 1051.4 110.17 1050.52 110.17ZM1050.53 108.295C1050.93 108.295 1051.27 108.182 1051.54 107.955C1051.8 107.723 1052.01 107.409 1052.14 107.011C1052.28 106.614 1052.35 106.161 1052.35 105.653C1052.35 105.146 1052.28 104.693 1052.14 104.295C1052.01 103.898 1051.8 103.583 1051.54 103.352C1051.27 103.121 1050.93 103.006 1050.53 103.006C1050.12 103.006 1049.78 103.121 1049.51 103.352C1049.23 103.583 1049.03 103.898 1048.89 104.295C1048.75 104.693 1048.68 105.146 1048.68 105.653C1048.68 106.161 1048.75 106.614 1048.89 107.011C1049.03 107.409 1049.23 107.723 1049.51 107.955C1049.78 108.182 1050.12 108.295 1050.53 108.295Z" fill="#5D5D5D"/>
<path d="M804.136 94.6136V113.75H801.841V94.6136H804.136Z" fill="#5D5D5D"/>
</svg>
